<svg xmlns="http://www.w3.org/2000/svg" xmlns:xlink="http://www.w3.org/1999/xlink" width="1024" zoomAndPan="magnify" viewBox="0 0 768 767.999994" height="1024" preserveAspectRatio="xMidYMid meet" version="1.0"><defs><filter x="0%" y="0%" width="100%" height="100%" id="0f6b27c404"><feColorMatrix values="0 0 0 0 1 0 0 0 0 1 0 0 0 0 1 0 0 0 1 0" color-interpolation-filters="sRGB"/></filter><mask id="89e653676d"><g filter="url(#0f6b27c404)"><rect x="-76.8" width="921.6" fill="#000000" y="-76.799999" height="921.599993" fill-opacity="0.35"/></g></mask><clipPath id="069b191b72"><path d="M 40 1 L 768 1 L 768 603 L 40 603 Z M 40 1 " clip-rule="nonzero"/></clipPath><clipPath id="3a46c1c924"><rect x="0" width="768" y="0" height="642"/></clipPath></defs><g mask="url(#89e653676d)"><g transform="matrix(1, 0, 0, 1, 0, 47)"><g clip-path="url(#3a46c1c924)"><g clip-path="url(#069b191b72)"><path fill="#000000" d="M 796.640625 1.324219 C 796.117188 1.324219 795.621094 1.457031 795.152344 1.71875 L 644.425781 77.644531 L 566.214844 40.113281 C 565.328125 39.667969 564.285156 39.667969 563.394531 40.085938 L 435.285156 100.222656 C 433.640625 101.003906 432.933594 102.964844 433.691406 104.605469 C 434.476562 106.25 436.433594 106.957031 438.078125 106.199219 L 564.78125 46.714844 L 643.042969 84.273438 C 643.957031 84.71875 645.050781 84.71875 645.964844 84.25 L 798.128906 7.589844 C 799.773438 6.808594 800.480469 4.847656 799.695312 3.203125 C 799.148438 2.03125 797.945312 1.300781 796.640625 1.324219 Z M 795.570312 122.171875 C 795.046875 122.171875 794.550781 122.304688 794.082031 122.539062 L 652.050781 190.636719 L 498.898438 173.410156 C 498.269531 173.332031 497.617188 173.4375 497.042969 173.722656 L 388.699219 228.066406 C 387.054688 228.847656 386.324219 230.804688 387.105469 232.449219 C 387.890625 234.09375 389.847656 234.824219 391.492188 234.042969 C 391.546875 234.015625 391.597656 233.988281 391.648438 233.964844 L 499.105469 180.066406 L 641.972656 196.117188 C 641.816406 196.195312 641.734375 196.222656 641.578125 196.300781 C 635.625 199.171875 628.210938 202.957031 620.925781 206.742188 C 606.847656 214.050781 594.234375 220.859375 593.347656 221.355469 L 532.765625 213.371094 C 531.980469 213.265625 531.226562 213.449219 530.546875 213.867188 L 338.742188 337.429688 L 275.027344 321.507812 C 274.035156 321.246094 272.964844 321.480469 272.15625 322.132812 L 210.527344 372.117188 C 209.089844 373.214844 208.804688 375.273438 209.902344 376.710938 C 210.996094 378.144531 213.0625 378.433594 214.496094 377.335938 C 214.550781 377.285156 214.601562 377.257812 214.652344 377.207031 L 275 328.265625 L 338.507812 344.136719 C 339.398438 344.371094 340.335938 344.214844 341.121094 343.71875 L 533.078125 220.027344 L 593.503906 228.011719 C 594.183594 228.117188 594.890625 227.988281 595.515625 227.648438 C 595.515625 227.648438 609.433594 220.105469 623.953125 212.5625 C 631.210938 208.800781 638.578125 205.019531 644.425781 202.226562 C 647.351562 200.816406 649.882812 199.667969 651.761719 198.882812 C 652.703125 198.492188 653.488281 198.179688 654.007812 198.023438 C 654.558594 197.839844 655.027344 197.867188 654.425781 197.867188 C 655.96875 197.867188 657.300781 196.796875 657.640625 195.28125 L 796.875 128.515625 C 798.519531 127.757812 799.277344 125.828125 798.519531 124.15625 C 798.023438 122.929688 796.847656 122.171875 795.570312 122.171875 Z M 805.703125 223.757812 C 805.570312 223.757812 805.441406 223.757812 805.308594 223.785156 C 804.789062 223.835938 804.316406 224.019531 803.875 224.304688 L 648.03125 322.367188 L 570.289062 306.34375 C 569.453125 306.160156 568.59375 306.316406 567.886719 306.757812 C 567.886719 306.757812 542.035156 322.757812 515.84375 339.308594 C 502.761719 347.582031 489.574219 356.011719 479.496094 362.695312 C 474.453125 366.035156 470.222656 368.933594 467.117188 371.152344 C 465.550781 372.273438 464.296875 373.210938 463.304688 374.023438 C 462.808594 374.414062 462.390625 374.804688 462.023438 375.171875 C 461.660156 375.535156 461.347656 375.746094 460.875 376.65625 C 460.015625 378.25 460.589844 380.261719 462.179688 381.121094 C 463.75 381.984375 465.707031 381.433594 466.59375 379.894531 C 466.75 379.738281 467.039062 379.476562 467.429688 379.136719 C 468.214844 378.484375 469.441406 377.597656 470.929688 376.527344 C 473.90625 374.386719 478.136719 371.515625 483.125 368.203125 C 493.125 361.570312 506.234375 353.140625 519.316406 344.867188 C 544.90625 328.660156 569.167969 313.675781 570.210938 313.050781 L 647.976562 329.050781 C 648.8125 329.207031 649.675781 329.050781 650.378906 328.605469 L 725.0625 281.625 L 767.261719 334.636719 L 633.773438 442.980469 C 632.308594 444.078125 632.023438 446.140625 633.117188 447.601562 C 634.214844 449.0625 636.277344 449.347656 637.742188 448.253906 C 637.792969 448.199219 637.84375 448.148438 637.921875 448.121094 L 773.921875 337.714844 C 775.332031 336.59375 775.566406 334.53125 774.445312 333.09375 L 730.652344 278.101562 L 807.320312 229.839844 C 808.886719 228.898438 809.382812 226.890625 808.46875 225.324219 C 807.921875 224.359375 806.851562 223.757812 805.703125 223.757812 Z M 237.03125 252.835938 C 236.484375 252.859375 235.960938 253.019531 235.464844 253.277344 L 75 343.902344 C 73.40625 344.789062 72.859375 346.796875 73.746094 348.390625 C 74.632812 349.984375 76.644531 350.53125 78.238281 349.644531 C 78.238281 349.644531 78.265625 349.644531 78.265625 349.617188 L 237.476562 259.671875 L 316.363281 282.539062 C 318.113281 283.035156 319.941406 282.042969 320.464844 280.292969 C 320.960938 278.542969 319.96875 276.71875 318.21875 276.195312 L 238 252.964844 C 237.6875 252.859375 237.371094 252.835938 237.03125 252.835938 Z M 596.273438 381.800781 C 595.644531 381.828125 595.046875 382.035156 594.523438 382.375 L 491.035156 450.941406 C 490.042969 451.59375 489.496094 452.742188 489.574219 453.917969 L 494.066406 509.929688 L 338.953125 596.0625 C 337.359375 596.949219 336.8125 598.960938 337.699219 600.550781 C 338.585938 602.144531 340.570312 602.691406 342.164062 601.832031 L 499.105469 514.679688 C 500.226562 514.054688 500.882812 512.828125 500.777344 511.546875 L 496.285156 455.351562 L 598.152344 387.882812 C 599.695312 386.914062 600.164062 384.878906 599.199219 383.339844 C 598.570312 382.320312 597.449219 381.746094 596.273438 381.800781 Z M 392.746094 450.367188 C 392.222656 450.394531 391.726562 450.550781 391.285156 450.8125 L 222.695312 543.78125 C 221.078125 544.617188 220.449219 546.601562 221.261719 548.21875 C 222.097656 549.839844 224.082031 550.464844 225.699219 549.65625 C 225.75 549.628906 225.832031 549.605469 225.882812 549.550781 L 394.46875 456.578125 C 396.0625 455.746094 396.6875 453.734375 395.855469 452.140625 C 395.253906 450.96875 394.027344 450.289062 392.746094 450.367188 Z M 212.566406 453.839844 C 212.042969 453.863281 211.546875 454.023438 211.074219 454.28125 L 42.488281 547.226562 C 40.871094 548.0625 40.21875 550.046875 41.050781 551.664062 C 41.886719 553.285156 43.871094 553.9375 45.492188 553.101562 C 45.542969 553.074219 45.621094 553.023438 45.675781 552.996094 L 214.261719 460.023438 C 215.855469 459.164062 216.480469 457.179688 215.621094 455.585938 C 215.046875 454.464844 213.84375 453.785156 212.566406 453.839844 Z M 212.566406 453.839844 " fill-opacity="1" fill-rule="nonzero"/></g><path fill="#4d4d4d" d="M 428.339844 79.289062 C 410.632812 79.289062 396.269531 93.644531 396.269531 111.339844 C 396.269531 129.039062 410.632812 143.394531 428.339844 143.394531 C 446.042969 143.394531 460.40625 129.039062 460.40625 111.339844 C 460.40625 93.644531 446.042969 79.289062 428.339844 79.289062 Z M 387.234375 204.183594 C 369.53125 204.183594 355.167969 218.539062 355.167969 236.234375 C 355.167969 253.929688 369.53125 268.285156 387.234375 268.285156 C 404.941406 268.285156 419.304688 253.929688 419.304688 236.234375 C 419.277344 218.539062 404.941406 204.183594 387.234375 204.183594 Z M 68.261719 324.167969 C 50.558594 324.167969 36.195312 338.523438 36.195312 356.222656 C 36.195312 373.917969 50.558594 388.273438 68.261719 388.273438 C 85.96875 388.273438 100.328125 373.917969 100.328125 356.222656 C 100.328125 338.5 85.96875 324.167969 68.261719 324.167969 Z M 449.699219 352.097656 C 431.996094 352.097656 417.632812 366.453125 417.632812 384.148438 C 417.632812 401.84375 431.996094 416.203125 449.699219 416.203125 C 467.402344 416.203125 481.765625 401.84375 481.765625 384.148438 C 481.765625 366.453125 467.402344 352.097656 449.699219 352.097656 Z M 185.277344 359.902344 C 167.570312 359.902344 153.210938 374.257812 153.210938 391.953125 C 153.210938 409.648438 167.570312 424.003906 185.277344 424.003906 C 202.980469 424.003906 217.34375 409.648438 217.34375 391.953125 C 217.34375 374.257812 202.980469 359.902344 185.277344 359.902344 Z M 618.652344 427.292969 C 600.945312 427.292969 586.585938 441.648438 586.585938 459.347656 C 586.585938 477.042969 600.945312 491.398438 618.652344 491.398438 C 636.355469 491.398438 650.71875 477.042969 650.71875 459.347656 C 650.71875 441.648438 636.355469 427.292969 618.652344 427.292969 Z M 32.097656 524.652344 C 14.390625 524.652344 0.0273438 539.007812 0.0273438 556.703125 C 0.0273438 574.398438 14.390625 588.753906 32.097656 588.753906 C 49.800781 588.753906 64.164062 574.398438 64.164062 556.703125 C 64.164062 539.007812 49.800781 524.652344 32.097656 524.652344 Z M 199.796875 524.652344 C 182.089844 524.652344 167.726562 539.007812 167.726562 556.703125 C 167.726562 574.398438 182.089844 588.753906 199.796875 588.753906 C 217.5 588.753906 231.863281 574.398438 231.863281 556.703125 C 231.863281 539.007812 217.5 524.652344 199.796875 524.652344 Z M 314.875 575.601562 C 297.171875 575.601562 282.808594 589.957031 282.808594 607.652344 C 282.808594 625.347656 297.171875 639.703125 314.875 639.703125 C 332.582031 639.703125 346.945312 625.347656 346.945312 607.652344 C 346.945312 589.957031 332.582031 575.601562 314.875 575.601562 Z M 314.875 575.601562 " fill-opacity="1" fill-rule="nonzero"/></g></g></g></svg>