<svg xmlns="http://www.w3.org/2000/svg" xmlns:xlink="http://www.w3.org/1999/xlink" width="1024" zoomAndPan="magnify" viewBox="0 0 768 767.999994" height="1024" preserveAspectRatio="xMidYMid meet" version="1.0"><defs><filter x="0%" y="0%" width="100%" height="100%" id="75ba8eac81"><feColorMatrix values="0 0 0 0 1 0 0 0 0 1 0 0 0 0 1 0 0 0 1 0" color-interpolation-filters="sRGB"/></filter><mask id="fac4af74f8"><g filter="url(#75ba8eac81)"><rect x="-76.8" width="921.6" fill="#000000" y="-76.799999" height="921.599993" fill-opacity="0.16"/></g></mask><clipPath id="e082dad2c8"><path d="M 1 0 L 768 0 L 768 768 L 1 768 Z M 1 0 " clip-rule="nonzero"/></clipPath><clipPath id="87090c789d"><rect x="0" width="768" y="0" height="768"/></clipPath></defs><g mask="url(#fac4af74f8)"><g transform="matrix(1, 0, 0, 1, -0.000000000000000028, -0.000000000000057351)"><g clip-path="url(#87090c789d)"><g clip-path="url(#e082dad2c8)"><path fill="#004aad" d="M 782.847656 771.433594 C 782.683594 771.378906 782.535156 771.339844 782.371094 771.304688 C 782.1875 771.25 782.019531 771.210938 781.835938 771.175781 C 781.761719 771.15625 781.707031 771.140625 781.632812 771.121094 L 781.632812 383.425781 C 781.78125 383.40625 781.910156 383.386719 782.058594 383.351562 C 782.425781 383.277344 782.773438 383.148438 783.125 383.019531 C 783.253906 382.964844 783.382812 382.945312 783.492188 382.890625 C 783.601562 382.855469 783.695312 382.796875 783.804688 382.742188 C 783.84375 382.726562 783.859375 382.726562 783.898438 382.707031 C 784.007812 382.652344 784.101562 382.558594 784.210938 382.503906 C 784.304688 382.449219 784.414062 382.394531 784.503906 382.339844 C 784.617188 382.265625 784.746094 382.210938 784.855469 382.136719 C 784.875 382.117188 784.910156 382.117188 784.929688 382.097656 C 785.003906 382.0625 785.039062 381.988281 785.113281 381.953125 C 785.296875 381.804688 785.480469 381.65625 785.648438 381.492188 C 785.792969 381.363281 785.941406 381.253906 786.070312 381.125 C 786.164062 381.03125 786.238281 380.9375 786.328125 380.847656 C 786.476562 380.699219 786.585938 380.515625 786.714844 380.367188 C 786.84375 380.203125 786.972656 380.054688 787.082031 379.890625 C 787.15625 379.777344 787.210938 379.6875 787.269531 379.578125 C 787.359375 379.410156 787.433594 379.246094 787.527344 379.078125 C 787.636719 378.875 787.746094 378.675781 787.820312 378.472656 C 787.855469 378.378906 787.894531 378.289062 787.910156 378.195312 C 787.984375 378.011719 788.023438 377.808594 788.078125 377.625 C 788.132812 377.402344 788.207031 377.183594 788.261719 376.945312 C 788.28125 376.871094 788.28125 376.796875 788.296875 376.722656 C 788.335938 376.484375 788.355469 376.226562 788.371094 375.984375 C 788.390625 375.800781 788.425781 375.636719 788.425781 375.453125 C 788.425781 375.414062 788.410156 375.378906 788.410156 375.34375 C 788.410156 375.285156 788.390625 375.230469 788.390625 375.175781 C 788.390625 374.957031 788.355469 374.734375 788.335938 374.511719 C 788.316406 374.292969 788.296875 374.054688 788.242188 373.832031 C 788.226562 373.738281 788.207031 373.667969 788.1875 373.59375 C 788.152344 373.410156 788.078125 373.222656 788.023438 373.039062 C 787.949219 372.820312 787.894531 372.597656 787.800781 372.394531 C 787.746094 372.265625 787.691406 372.15625 787.636719 372.027344 C 787.597656 371.953125 787.597656 371.878906 787.5625 371.824219 C 787.527344 371.734375 787.46875 371.679688 787.414062 371.585938 C 787.304688 371.402344 787.195312 371.21875 787.082031 371.035156 C 787.027344 370.960938 787.011719 370.867188 786.953125 370.792969 C 786.9375 370.757812 786.898438 370.738281 786.863281 370.703125 C 786.789062 370.589844 786.695312 370.480469 786.605469 370.371094 C 786.457031 370.1875 786.308594 370.039062 786.144531 369.875 C 786.109375 369.835938 786.070312 369.78125 786.015625 369.746094 C 785.960938 369.691406 785.90625 369.617188 785.832031 369.542969 C 785.757812 369.46875 785.683594 369.414062 785.609375 369.359375 C 785.445312 369.210938 785.261719 369.082031 785.078125 368.953125 C 784.929688 368.84375 784.78125 368.714844 784.617188 368.621094 C 784.578125 368.585938 784.523438 368.566406 784.488281 368.546875 C 784.285156 368.417969 784.0625 368.308594 783.84375 368.199219 C 783.660156 368.105469 783.476562 368.015625 783.289062 367.941406 C 783.253906 367.921875 783.21875 367.902344 783.179688 367.886719 C 782.960938 367.8125 782.738281 367.738281 782.515625 367.683594 C 782.332031 367.628906 782.148438 367.570312 781.945312 367.535156 C 781.855469 367.515625 781.761719 367.480469 781.652344 367.460938 L 781.652344 16.09375 C 781.726562 16.074219 781.78125 16.054688 781.855469 16.035156 C 782.039062 16 782.222656 15.945312 782.40625 15.890625 C 782.683594 15.816406 782.941406 15.742188 783.199219 15.648438 C 783.402344 15.578125 783.585938 15.464844 783.789062 15.375 C 784.007812 15.261719 784.230469 15.171875 784.433594 15.042969 C 784.652344 14.914062 784.855469 14.746094 785.078125 14.601562 C 785.242188 14.488281 785.40625 14.378906 785.554688 14.25 C 785.777344 14.066406 785.960938 13.863281 786.164062 13.660156 C 786.292969 13.53125 786.421875 13.402344 786.550781 13.257812 C 786.714844 13.054688 786.863281 12.832031 787.011719 12.613281 C 787.140625 12.429688 787.269531 12.261719 787.378906 12.058594 C 787.488281 11.855469 787.582031 11.65625 787.671875 11.453125 C 787.78125 11.210938 787.894531 10.972656 787.984375 10.734375 C 788.003906 10.679688 788.039062 10.625 788.058594 10.550781 C 788.097656 10.421875 788.097656 10.292969 788.132812 10.183594 C 788.226562 9.851562 788.296875 9.519531 788.335938 9.167969 C 788.355469 8.984375 788.371094 8.800781 788.390625 8.617188 C 788.410156 8.433594 788.445312 8.265625 788.445312 8.082031 C 788.445312 7.933594 788.410156 7.804688 788.410156 7.675781 C 788.390625 7.4375 788.371094 7.179688 788.335938 6.941406 C 788.296875 6.648438 788.242188 6.371094 788.167969 6.09375 C 788.113281 5.855469 788.039062 5.632812 787.949219 5.394531 C 787.855469 5.136719 787.765625 4.878906 787.636719 4.621094 C 787.527344 4.382812 787.398438 4.160156 787.269531 3.941406 C 787.140625 3.71875 787.011719 3.515625 786.863281 3.3125 C 786.695312 3.074219 786.511719 2.871094 786.328125 2.652344 C 786.179688 2.484375 786.015625 2.300781 785.851562 2.152344 C 785.648438 1.953125 785.425781 1.785156 785.1875 1.621094 C 784.984375 1.472656 784.78125 1.324219 784.578125 1.195312 C 784.359375 1.066406 784.121094 0.9375 783.878906 0.828125 C 783.621094 0.699219 783.363281 0.589844 783.105469 0.496094 C 782.996094 0.460938 782.902344 0.386719 782.773438 0.351562 C 782.644531 0.3125 782.515625 0.292969 782.386719 0.277344 C 782.09375 0.203125 781.800781 0.148438 781.503906 0.09375 C 781.265625 0.0546875 781.027344 0.0351562 780.769531 0.0195312 C 780.601562 0 780.457031 -0.0351562 780.289062 -0.0351562 C 780.140625 -0.0351562 780.011719 0 779.882812 0 C 779.625 0.0195312 779.386719 0.0351562 779.148438 0.0742188 C 778.851562 0.109375 778.578125 0.164062 778.300781 0.238281 C 778.0625 0.292969 777.839844 0.367188 777.601562 0.460938 C 777.34375 0.550781 777.085938 0.644531 776.828125 0.773438 C 776.589844 0.882812 776.367188 1.011719 776.148438 1.140625 C 775.925781 1.269531 775.722656 1.398438 775.519531 1.546875 C 775.28125 1.710938 775.078125 1.894531 774.859375 2.097656 C 774.691406 2.246094 774.507812 2.410156 774.359375 2.578125 C 774.160156 2.78125 773.992188 3 773.808594 3.242188 C 773.660156 3.441406 773.515625 3.644531 773.386719 3.847656 C 773.238281 4.070312 773.128906 4.308594 773 4.546875 C 772.871094 4.804688 772.757812 5.042969 772.667969 5.320312 C 772.628906 5.429688 772.558594 5.542969 772.519531 5.652344 C 772.464844 5.800781 772.464844 5.945312 772.429688 6.09375 C 772.371094 6.332031 772.316406 6.574219 772.28125 6.8125 C 772.242188 7.089844 772.207031 7.363281 772.1875 7.640625 C 772.171875 7.804688 772.132812 7.972656 772.132812 8.136719 C 772.132812 8.230469 772.152344 8.304688 772.152344 8.378906 C 772.152344 8.578125 772.1875 8.78125 772.207031 9.003906 C 772.242188 9.28125 772.261719 9.554688 772.316406 9.8125 C 772.355469 9.996094 772.429688 10.199219 772.484375 10.382812 C 772.558594 10.640625 772.628906 10.917969 772.722656 11.15625 C 772.796875 11.359375 772.90625 11.542969 773 11.746094 C 773.109375 11.96875 773.199219 12.1875 773.328125 12.390625 C 773.457031 12.613281 773.625 12.816406 773.773438 13.015625 C 773.902344 13.183594 774.011719 13.347656 774.140625 13.496094 C 774.324219 13.699219 774.527344 13.882812 774.730469 14.066406 C 774.875 14.195312 775.003906 14.34375 775.152344 14.472656 C 775.355469 14.636719 775.558594 14.765625 775.777344 14.894531 C 775.964844 15.023438 776.164062 15.152344 776.367188 15.261719 C 776.421875 15.300781 776.460938 15.335938 776.515625 15.355469 L 709.847656 223.8125 C 705.980469 223.277344 702.207031 225.542969 700.953125 229.390625 C 700.660156 230.3125 700.585938 231.234375 700.605469 232.152344 L 451.144531 284.128906 C 451.125 284.113281 451.125 284.09375 451.105469 284.054688 C 451.070312 283.945312 451.015625 283.855469 450.960938 283.742188 C 450.867188 283.523438 450.738281 283.320312 450.628906 283.117188 C 450.554688 282.988281 450.5 282.878906 450.425781 282.75 C 450.351562 282.65625 450.296875 282.546875 450.222656 282.453125 C 450.09375 282.289062 449.964844 282.121094 449.816406 281.957031 C 449.707031 281.828125 449.597656 281.699219 449.484375 281.570312 C 449.394531 281.480469 449.339844 281.386719 449.246094 281.292969 C 449.117188 281.183594 448.988281 281.074219 448.859375 280.964844 C 448.714844 280.835938 448.566406 280.707031 448.398438 280.59375 C 448.289062 280.503906 448.179688 280.410156 448.050781 280.320312 C 448.050781 280.320312 448.03125 280.320312 448.03125 280.300781 C 448.03125 280.300781 448.011719 280.28125 448.011719 280.28125 C 447.921875 280.226562 447.828125 280.191406 447.738281 280.132812 C 447.496094 279.988281 447.238281 279.859375 446.980469 279.746094 C 446.796875 279.65625 446.59375 279.5625 446.410156 279.488281 C 446.078125 279.359375 445.75 279.289062 445.417969 279.195312 C 445.269531 279.160156 445.140625 279.121094 444.992188 279.085938 C 444.550781 279.011719 444.109375 278.976562 443.648438 278.976562 C 443.59375 278.976562 443.558594 278.957031 443.503906 278.957031 C 443.003906 278.957031 442.488281 279.011719 441.992188 279.121094 C 441.992188 279.121094 441.972656 279.121094 441.972656 279.121094 C 441.972656 279.121094 441.957031 279.121094 441.957031 279.121094 C 441.957031 279.121094 441.9375 279.121094 441.9375 279.121094 C 441.53125 279.214844 441.128906 279.34375 440.722656 279.507812 C 440.648438 279.546875 440.554688 279.546875 440.484375 279.582031 C 440.152344 279.710938 439.855469 279.894531 439.5625 280.078125 C 439.433594 280.152344 439.304688 280.207031 439.195312 280.28125 C 439.175781 280.300781 439.140625 280.320312 439.101562 280.335938 C 439.082031 280.355469 439.066406 280.355469 439.046875 280.375 C 438.824219 280.519531 438.640625 280.722656 438.421875 280.890625 C 438.328125 280.964844 438.21875 281.035156 438.125 281.128906 C 438.035156 281.203125 437.941406 281.277344 437.851562 281.351562 C 437.832031 281.367188 437.8125 281.386719 437.792969 281.40625 C 437.609375 281.609375 437.445312 281.828125 437.277344 282.050781 C 437.132812 282.234375 436.964844 282.398438 436.820312 282.601562 C 436.820312 282.601562 436.820312 282.621094 436.800781 282.621094 C 436.800781 282.621094 436.78125 282.636719 436.78125 282.636719 C 436.503906 283.082031 436.285156 283.523438 436.082031 283.984375 C 436.082031 284 436.0625 284 436.0625 284.019531 C 436.007812 284.183594 435.972656 284.351562 435.917969 284.5 C 435.824219 284.792969 435.714844 285.085938 435.640625 285.382812 C 435.621094 285.4375 435.605469 285.492188 435.605469 285.566406 C 435.566406 285.730469 435.585938 285.898438 435.546875 286.042969 C 435.546875 286.0625 435.546875 286.082031 435.546875 286.082031 C 435.511719 286.339844 435.476562 286.597656 435.476562 286.855469 C 435.476562 286.945312 435.457031 287.039062 435.457031 287.132812 C 435.457031 287.277344 435.492188 287.425781 435.511719 287.574219 C 435.53125 287.847656 435.546875 288.144531 435.605469 288.417969 C 435.621094 288.511719 435.621094 288.605469 435.640625 288.695312 C 435.640625 288.734375 435.660156 288.769531 435.675781 288.804688 C 435.695312 288.878906 435.734375 288.953125 435.75 289.027344 C 435.824219 289.304688 435.898438 289.578125 436.007812 289.855469 C 436.0625 289.984375 436.082031 290.113281 436.136719 290.242188 C 436.175781 290.316406 436.210938 290.371094 436.246094 290.445312 C 436.375 290.722656 436.503906 290.960938 436.671875 291.21875 C 436.761719 291.367188 436.820312 291.511719 436.929688 291.640625 C 436.949219 291.679688 436.984375 291.714844 437.019531 291.753906 C 437.207031 292.011719 437.40625 292.230469 437.609375 292.46875 C 437.722656 292.597656 437.832031 292.746094 437.960938 292.855469 C 437.980469 292.875 437.996094 292.894531 438.015625 292.914062 C 438.050781 292.949219 438.089844 293.003906 438.125 293.042969 L 346.289062 434.976562 L 206.855469 270.191406 C 209.359375 267.210938 209.433594 262.753906 206.835938 259.699219 C 203.945312 256.273438 198.792969 255.847656 195.347656 258.738281 C 191.90625 261.628906 191.5 266.785156 194.390625 270.230469 C 196.988281 273.304688 201.386719 273.964844 204.738281 271.976562 L 344.390625 437.019531 L 162.207031 564.136719 C 162.117188 564.042969 161.988281 563.953125 161.894531 563.859375 C 161.691406 563.675781 161.488281 563.492188 161.269531 563.34375 C 161.085938 563.195312 160.882812 563.085938 160.660156 562.957031 C 160.441406 562.828125 160.238281 562.699219 160.015625 562.589844 C 159.757812 562.460938 159.484375 562.367188 159.207031 562.257812 C 159.023438 562.183594 158.855469 562.109375 158.652344 562.054688 C 157.679688 561.777344 156.648438 561.667969 155.632812 561.761719 C 155.578125 561.761719 155.542969 561.777344 155.488281 561.777344 C 155.027344 561.835938 154.585938 561.925781 154.125 562.054688 C 154.070312 562.074219 154.03125 562.074219 153.976562 562.09375 C 153.867188 562.128906 153.757812 562.183594 153.644531 562.238281 C 153.332031 562.351562 153.019531 562.480469 152.726562 562.625 C 152.503906 562.738281 152.300781 562.847656 152.101562 562.976562 C 151.972656 563.050781 151.84375 563.105469 151.730469 563.195312 C 151.640625 563.25 151.566406 563.34375 151.472656 563.417969 C 151.234375 563.601562 150.996094 563.804688 150.773438 564.007812 C 150.589844 564.171875 150.425781 564.355469 150.257812 564.539062 C 150.074219 564.742188 149.925781 564.964844 149.761719 565.167969 C 149.613281 565.386719 149.449219 565.609375 149.320312 565.828125 C 149.191406 566.050781 149.097656 566.269531 148.988281 566.492188 C 148.878906 566.75 148.765625 567.007812 148.675781 567.265625 C 148.601562 567.488281 148.546875 567.726562 148.492188 567.945312 C 148.417969 568.222656 148.363281 568.5 148.324219 568.792969 C 148.289062 569.015625 148.289062 569.253906 148.269531 569.492188 C 148.25 569.789062 148.25 570.082031 148.269531 570.394531 C 148.289062 570.617188 148.308594 570.835938 148.34375 571.078125 C 148.378906 571.371094 148.4375 571.664062 148.527344 571.960938 C 148.566406 572.070312 148.566406 572.179688 148.601562 572.308594 C 148.65625 572.457031 148.730469 572.585938 148.785156 572.734375 C 148.859375 572.953125 148.953125 573.15625 149.042969 573.378906 C 149.171875 573.671875 149.335938 573.949219 149.503906 574.207031 C 149.578125 574.316406 149.613281 574.445312 149.707031 574.558594 C 149.742188 574.613281 149.78125 574.648438 149.816406 574.6875 C 150.074219 575.035156 150.351562 575.347656 150.644531 575.644531 C 150.699219 575.699219 150.753906 575.773438 150.8125 575.808594 C 151.566406 576.507812 152.429688 577.0625 153.371094 577.429688 C 153.515625 577.484375 153.683594 577.519531 153.847656 577.578125 C 154.144531 577.667969 154.457031 577.777344 154.769531 577.835938 C 155.007812 577.890625 155.246094 577.90625 155.488281 577.925781 C 155.726562 577.945312 155.964844 577.980469 156.222656 577.980469 C 156.5 577.980469 156.777344 577.960938 157.050781 577.945312 C 157.179688 577.925781 157.308594 577.945312 157.457031 577.925781 L 192.476562 690.753906 C 190.195312 691.914062 188.480469 694.121094 188.09375 696.882812 C 187.964844 697.933594 188.039062 698.964844 188.277344 699.921875 L 16.035156 774.691406 C 13.882812 771.414062 9.738281 770.109375 5.984375 771.671875 C 1.824219 773.53125 0 778.191406 1.75 782.386719 C 3.609375 786.550781 8.265625 788.371094 12.464844 786.621094 C 16.183594 784.964844 18.042969 781.042969 17.125 777.214844 L 189.382812 702.445312 C 190.617188 704.339844 192.605469 705.722656 195.054688 706.070312 C 199.066406 706.585938 202.769531 704.195312 203.945312 700.472656 L 772.1875 779.40625 C 772.1875 779.496094 772.207031 779.589844 772.226562 779.683594 C 772.242188 779.902344 772.261719 780.140625 772.300781 780.363281 C 772.316406 780.511719 772.335938 780.675781 772.371094 780.824219 C 772.390625 780.898438 772.410156 780.953125 772.429688 781.027344 C 772.429688 781.042969 772.429688 781.042969 772.429688 781.0625 C 772.464844 781.191406 772.464844 781.320312 772.5 781.429688 C 772.539062 781.542969 772.59375 781.652344 772.628906 781.761719 C 772.667969 781.890625 772.703125 782.019531 772.757812 782.148438 C 772.816406 782.277344 772.871094 782.371094 772.925781 782.5 C 773.035156 782.738281 773.144531 782.976562 773.273438 783.199219 C 773.3125 783.253906 773.328125 783.328125 773.367188 783.382812 C 773.457031 783.53125 773.570312 783.660156 773.660156 783.789062 C 773.808594 784.007812 773.957031 784.230469 774.140625 784.433594 C 774.160156 784.449219 774.175781 784.488281 774.195312 784.503906 C 774.359375 784.707031 774.5625 784.875 774.746094 785.039062 C 774.894531 785.167969 775.003906 785.316406 775.152344 785.425781 C 775.191406 785.464844 775.207031 785.480469 775.246094 785.519531 C 775.246094 785.519531 775.261719 785.519531 775.261719 785.535156 C 775.667969 785.851562 776.09375 786.125 776.550781 786.347656 C 776.699219 786.421875 776.863281 786.476562 777.011719 786.550781 C 777.269531 786.660156 777.527344 786.789062 777.804688 786.878906 C 777.839844 786.878906 777.859375 786.898438 777.894531 786.898438 C 777.914062 786.898438 777.933594 786.898438 777.953125 786.917969 C 778.171875 786.992188 778.394531 787.027344 778.613281 787.066406 C 778.796875 787.101562 778.984375 787.175781 779.167969 787.195312 C 779.203125 787.195312 779.238281 787.195312 779.277344 787.195312 C 779.351562 787.195312 779.425781 787.210938 779.480469 787.210938 C 779.773438 787.25 780.070312 787.230469 780.363281 787.230469 C 780.527344 787.230469 780.675781 787.25 780.84375 787.230469 C 780.914062 787.230469 781.007812 787.210938 781.082031 787.210938 C 781.359375 787.175781 781.617188 787.121094 781.890625 787.066406 C 781.929688 787.066406 781.964844 787.046875 781.984375 787.046875 C 782.128906 787.007812 782.277344 787.007812 782.40625 786.972656 C 782.460938 786.953125 782.5 786.953125 782.554688 786.953125 C 782.589844 786.9375 782.628906 786.917969 782.683594 786.898438 C 782.847656 786.84375 783.015625 786.75 783.199219 786.695312 C 783.308594 786.660156 783.402344 786.621094 783.511719 786.566406 C 783.640625 786.511719 783.789062 786.476562 783.917969 786.402344 C 784.25 786.238281 784.5625 786.035156 784.855469 785.832031 C 784.984375 785.738281 785.132812 785.664062 785.261719 785.554688 C 785.351562 785.480469 785.445312 785.425781 785.519531 785.351562 C 785.535156 785.335938 785.535156 785.316406 785.554688 785.316406 C 785.703125 785.207031 785.8125 785.058594 785.941406 784.929688 C 786.109375 784.761719 786.273438 784.617188 786.421875 784.449219 C 786.476562 784.375 786.550781 784.304688 786.605469 784.230469 C 786.625 784.210938 786.640625 784.191406 786.660156 784.15625 C 786.753906 784.046875 786.808594 783.898438 786.898438 783.789062 C 787.046875 783.566406 787.210938 783.363281 787.339844 783.125 C 787.378906 783.050781 787.414062 782.976562 787.453125 782.902344 C 787.542969 782.71875 787.636719 782.515625 787.710938 782.316406 C 787.800781 782.09375 787.894531 781.890625 787.96875 781.671875 C 787.984375 781.597656 788.003906 781.523438 788.042969 781.449219 C 788.113281 781.210938 788.171875 780.953125 788.207031 780.695312 C 788.242188 780.527344 788.296875 780.382812 788.316406 780.214844 C 788.316406 780.179688 788.316406 780.140625 788.316406 780.105469 C 788.316406 780.03125 788.335938 779.957031 788.335938 779.902344 C 788.371094 779.609375 788.355469 779.3125 788.355469 779.019531 C 788.355469 778.851562 788.371094 778.707031 788.355469 778.539062 C 788.355469 778.464844 788.335938 778.375 788.335938 778.300781 C 788.300781 778.023438 788.242188 777.75 788.1875 777.492188 C 788.1875 777.453125 788.171875 777.417969 788.171875 777.398438 C 788.132812 777.25 788.132812 777.121094 788.097656 776.976562 C 788.078125 776.921875 788.078125 776.882812 788.078125 776.828125 C 788.058594 776.773438 788.042969 776.734375 788.023438 776.699219 C 787.984375 776.589844 787.929688 776.496094 787.894531 776.386719 C 787.746094 776 787.597656 775.613281 787.398438 775.246094 C 787.359375 775.171875 787.304688 775.097656 787.269531 775.023438 C 787.046875 774.65625 786.808594 774.304688 786.550781 773.972656 C 786.476562 773.882812 786.382812 773.789062 786.292969 773.699219 C 786.109375 773.496094 785.941406 773.292969 785.738281 773.109375 C 785.648438 773.035156 785.554688 772.960938 785.464844 772.886719 C 785.40625 772.832031 785.351562 772.777344 785.296875 772.722656 C 785.207031 772.648438 785.113281 772.613281 785.023438 772.539062 C 784.875 772.445312 784.746094 772.335938 784.597656 772.242188 C 784.46875 772.167969 784.359375 772.097656 784.230469 772.023438 C 784.0625 771.929688 783.898438 771.855469 783.734375 771.78125 C 783.585938 771.710938 783.417969 771.636719 783.273438 771.582031 C 783.125 771.542969 782.996094 771.488281 782.847656 771.433594 Z M 690 441.625 C 689.886719 441.21875 689.703125 440.832031 689.539062 440.464844 L 774.472656 381.160156 C 774.472656 381.160156 774.488281 381.179688 774.488281 381.179688 C 774.546875 381.234375 774.617188 381.289062 774.691406 381.34375 C 774.710938 381.363281 774.730469 381.363281 774.730469 381.378906 C 774.894531 381.546875 775.078125 381.695312 775.261719 381.839844 C 775.390625 381.933594 775.503906 382.042969 775.613281 382.136719 C 775.722656 382.210938 775.851562 382.28125 775.960938 382.355469 C 776.148438 382.46875 776.332031 382.578125 776.515625 382.667969 C 776.644531 382.726562 776.753906 382.796875 776.882812 382.855469 C 777.050781 382.925781 777.234375 383 777.398438 383.054688 C 777.566406 383.113281 777.730469 383.167969 777.894531 383.222656 C 778.023438 383.257812 778.152344 383.296875 778.300781 383.332031 C 778.484375 383.371094 778.667969 383.425781 778.851562 383.460938 L 778.851562 769.535156 L 685.746094 451.273438 C 689.261719 449.539062 691.101562 445.492188 690 441.625 Z M 772.132812 374.769531 C 772.113281 374.898438 772.132812 375.011719 772.113281 375.140625 C 772.113281 375.230469 772.097656 375.324219 772.097656 375.433594 C 772.097656 375.5625 772.132812 375.671875 772.132812 375.785156 C 772.132812 375.820312 772.132812 375.839844 772.132812 375.875 C 772.132812 375.96875 772.132812 376.078125 772.132812 376.171875 C 772.152344 376.355469 772.1875 376.539062 772.226562 376.722656 C 772.261719 376.925781 772.28125 377.109375 772.335938 377.3125 C 772.355469 377.402344 772.371094 377.496094 772.390625 377.589844 C 772.445312 377.789062 772.539062 377.992188 772.613281 378.195312 C 772.683594 378.378906 772.742188 378.5625 772.8125 378.746094 C 772.832031 378.804688 772.851562 378.859375 772.871094 378.894531 L 687.9375 438.21875 C 685.890625 436.175781 682.835938 435.253906 679.890625 436.101562 C 678.4375 436.523438 677.21875 437.332031 676.246094 438.363281 L 451.34375 290.519531 L 772.132812 374.714844 C 772.132812 374.734375 772.132812 374.753906 772.132812 374.769531 Z M 449.226562 292.875 C 449.320312 292.785156 449.410156 292.710938 449.503906 292.617188 L 674.734375 440.683594 C 674 442.378906 673.796875 444.3125 674.347656 446.207031 C 675.472656 450.074219 679.226562 452.449219 683.09375 452.007812 L 776.476562 771.210938 L 449.226562 292.875 C 449.210938 292.875 449.210938 292.875 449.226562 292.875 Z M 778.851562 16.921875 L 778.851562 367.40625 C 778.796875 367.40625 778.761719 367.441406 778.707031 367.441406 C 778.523438 367.480469 778.355469 367.535156 778.171875 367.570312 C 778.078125 367.589844 777.988281 367.609375 777.894531 367.628906 L 713.492188 238.359375 C 714.835938 237.382812 715.886719 236 716.4375 234.289062 C 717.632812 230.441406 715.902344 226.390625 712.441406 224.585938 Z M 701.15625 234.804688 C 702.019531 236.996094 703.789062 238.800781 706.21875 239.59375 C 707.859375 240.109375 709.515625 240.070312 711.042969 239.628906 L 775.445312 368.878906 C 775.375 368.933594 775.316406 368.988281 775.261719 369.042969 C 775.097656 369.171875 774.949219 369.300781 774.800781 369.429688 C 774.671875 369.558594 774.527344 369.671875 774.398438 369.800781 C 774.34375 369.875 774.289062 369.945312 774.214844 370.003906 C 774.085938 370.148438 773.957031 370.296875 773.84375 370.460938 C 773.734375 370.609375 773.605469 370.757812 773.496094 370.90625 C 773.457031 370.960938 773.421875 371.035156 773.386719 371.089844 C 773.257812 371.273438 773.164062 371.476562 773.054688 371.675781 C 772.980469 371.804688 772.90625 371.933594 772.851562 372.0625 L 451.675781 287.757812 C 451.695312 287.574219 451.695312 287.390625 451.695312 287.203125 C 451.695312 287.148438 451.695312 287.09375 451.695312 287.039062 C 451.695312 286.984375 451.714844 286.929688 451.714844 286.855469 C 451.714844 286.816406 451.714844 286.78125 451.714844 286.746094 Z M 440.355469 294.53125 C 440.390625 294.550781 440.410156 294.550781 440.445312 294.570312 C 440.574219 294.625 440.703125 294.644531 440.832031 294.699219 C 441.164062 294.828125 441.511719 294.9375 441.84375 295.011719 C 442.066406 295.066406 442.285156 295.066406 442.488281 295.101562 C 442.765625 295.140625 443.042969 295.175781 443.316406 295.175781 C 443.539062 295.175781 443.757812 295.160156 444 295.160156 C 444.109375 295.160156 444.203125 295.160156 444.3125 295.140625 C 444.386719 295.140625 444.441406 295.140625 444.515625 295.140625 C 444.644531 295.121094 444.773438 295.085938 444.882812 295.066406 C 444.992188 295.046875 445.085938 295.046875 445.195312 295.03125 C 445.304688 295.011719 445.417969 294.957031 445.527344 294.9375 C 445.765625 294.882812 445.988281 294.808594 446.207031 294.734375 C 446.449219 294.660156 446.6875 294.570312 446.90625 294.457031 C 446.90625 294.457031 446.90625 294.457031 446.925781 294.457031 L 773.992188 772.5 L 348.183594 436.984375 Z M 197.226562 689.925781 C 196.488281 689.832031 195.773438 689.871094 195.054688 689.960938 L 160.035156 577.117188 C 160.253906 577.003906 160.457031 576.859375 160.679688 576.710938 C 160.789062 576.636719 160.898438 576.601562 161.011719 576.527344 C 161.046875 576.507812 161.066406 576.472656 161.101562 576.433594 C 161.34375 576.25 161.5625 576.066406 161.785156 575.863281 C 161.929688 575.734375 162.078125 575.605469 162.207031 575.476562 C 162.375 575.292969 162.539062 575.089844 162.6875 574.90625 C 162.832031 574.722656 162.980469 574.558594 163.109375 574.371094 C 163.21875 574.1875 163.3125 574.003906 163.421875 573.820312 C 163.550781 573.597656 163.679688 573.378906 163.789062 573.140625 C 163.863281 572.953125 163.917969 572.769531 163.992188 572.585938 C 164.085938 572.328125 164.175781 572.070312 164.25 571.8125 C 164.289062 571.628906 164.304688 571.445312 164.34375 571.261719 C 164.398438 570.984375 164.453125 570.707031 164.472656 570.414062 C 164.492188 570.25 164.472656 570.0625 164.472656 569.898438 C 164.472656 569.585938 164.472656 569.289062 164.453125 568.996094 C 164.433594 568.8125 164.398438 568.648438 164.363281 568.460938 C 164.304688 568.167969 164.269531 567.875 164.175781 567.597656 C 164.160156 567.542969 164.160156 567.503906 164.140625 567.449219 C 164.105469 567.320312 164.03125 567.191406 163.976562 567.0625 C 163.902344 566.84375 163.828125 566.621094 163.734375 566.398438 L 346.324219 439.007812 L 773.109375 775.261719 C 773.109375 775.261719 773.109375 775.28125 773.089844 775.28125 C 773.035156 775.390625 772.980469 775.519531 772.925781 775.632812 C 772.851562 775.796875 772.777344 775.960938 772.703125 776.148438 C 772.648438 776.3125 772.554688 776.460938 772.5 776.625 C 772.5 776.644531 772.484375 776.664062 772.484375 776.664062 L 204.242188 697.730469 C 204.09375 693.828125 201.242188 690.496094 197.226562 689.925781 Z M 197.226562 689.925781 " fill-opacity="1" fill-rule="nonzero"/></g></g></g></g></svg>