<svg xmlns="http://www.w3.org/2000/svg" xmlns:xlink="http://www.w3.org/1999/xlink" width="314" zoomAndPan="magnify" viewBox="0 0 235.5 167.999997" height="224" preserveAspectRatio="xMidYMid meet" version="1.0"><path fill="#00ffff" d="M 0.429688 84 C 0.464844 84.164062 13.175781 141.488281 63.46875 133.648438 C 84.996094 130.292969 98.285156 118.925781 108.019531 110.589844 C 112.449219 106.800781 116.144531 103.636719 119.5625 102.121094 C 126.292969 99.140625 131.882812 102.519531 139.617188 119.988281 C 149.753906 142.875 158.414062 155.453125 168.042969 160.347656 C 177.648438 165.230469 188.25 162.457031 202.289062 154.621094 C 213.5 148.363281 218.238281 143.589844 220.953125 140.855469 C 222.3125 139.480469 223.171875 138.617188 224.101562 138.320312 C 225.695312 137.8125 227.359375 138.996094 231.851562 142.1875 C 232.757812 142.832031 233.773438 143.554688 234.867188 144.3125 L 234.6875 144.566406 C 233.519531 143.75 232.539062 143.054688 231.671875 142.4375 C 227.265625 139.3125 225.632812 138.152344 224.1875 138.613281 C 223.332031 138.882812 222.492188 139.726562 221.15625 141.070312 C 218.433594 143.816406 213.679688 148.609375 202.425781 154.890625 C 188.292969 162.773438 177.605469 165.5625 167.886719 160.621094 C 158.191406 155.691406 149.492188 143.0625 139.324219 120.109375 C 131.683594 102.867188 126.21875 99.507812 119.675781 102.402344 C 116.296875 103.902344 112.617188 107.050781 108.210938 110.820312 C 98.441406 119.179688 85.117188 130.582031 63.503906 133.949219 C 12.9375 141.835938 0.167969 84.234375 0.128906 84.070312 Z M 0.429688 84 " fill-opacity="1" fill-rule="nonzero"/><path fill="#2bd5ff" d="M 0.425781 92.722656 C 0.472656 92.867188 15.914062 143.332031 63.425781 131.257812 C 81.949219 126.546875 93.875 117.691406 102.671875 111.15625 C 106.753906 108.125 110.167969 105.597656 113.261719 104.195312 C 120.722656 100.828125 126.28125 104.023438 134.679688 122.609375 C 144.351562 144.019531 153.054688 155.066406 162.820312 158.800781 C 172.574219 162.527344 183.414062 158.945312 197.347656 151.082031 C 201.824219 148.558594 205.359375 146.460938 208.203125 144.773438 C 214.125 141.261719 217.027344 139.535156 219.417969 139.320312 C 221.742188 139.109375 223.519531 140.308594 227.007812 142.671875 C 228.960938 143.992188 231.453125 145.675781 234.867188 147.675781 L 234.710938 147.941406 C 231.277344 145.933594 228.789062 144.25 226.839844 142.929688 C 223.40625 140.609375 221.660156 139.429688 219.445312 139.628906 C 217.128906 139.839844 214.242188 141.554688 208.363281 145.042969 C 205.539062 146.71875 202.019531 148.804688 197.503906 151.355469 C 183.488281 159.265625 172.574219 162.859375 162.71875 159.09375 C 152.875 155.335938 144.113281 144.230469 134.402344 122.742188 C 126.105469 104.378906 120.664062 101.203125 113.390625 104.484375 C 110.328125 105.867188 106.933594 108.386719 102.863281 111.410156 C 94.039062 117.960938 82.085938 126.839844 63.507812 131.5625 C 15.707031 143.703125 0.175781 92.960938 0.128906 92.816406 Z M 0.425781 92.722656 " fill-opacity="1" fill-rule="nonzero"/><path fill="#55aaff" d="M 0.417969 101.4375 C 0.472656 101.5625 18.65625 145.179688 63.386719 128.859375 C 78.152344 123.46875 88.363281 116.898438 96.078125 111.933594 C 99.964844 109.429688 103.21875 107.335938 106.105469 106.003906 C 114.984375 101.90625 120.371094 104.945312 129.734375 125.230469 C 138.9375 145.15625 147.695312 154.683594 157.597656 157.246094 C 167.492188 159.8125 178.574219 155.429688 192.40625 147.535156 C 212.644531 135.984375 214.878906 137.640625 222.636719 143.378906 C 225.523438 145.515625 229.183594 148.222656 234.855469 151.023438 L 234.71875 151.296875 C 229.023438 148.492188 225.351562 145.769531 222.453125 143.625 C 214.824219 137.976562 212.628906 136.347656 192.558594 147.800781 C 178.664062 155.734375 167.523438 160.136719 157.519531 157.546875 C 147.527344 154.953125 138.703125 145.378906 129.457031 125.359375 C 120.195312 105.304688 114.910156 102.285156 106.238281 106.289062 C 103.367188 107.613281 100.125 109.703125 96.246094 112.199219 C 88.523438 117.171875 78.292969 123.753906 63.492188 129.152344 C 18.480469 145.566406 0.191406 101.6875 0.136719 101.558594 Z M 0.417969 101.4375 " fill-opacity="1" fill-rule="nonzero"/><path fill="#8080ff" d="M 0.410156 110.148438 C 0.472656 110.253906 21.382812 147.023438 63.34375 126.460938 C 72.992188 121.726562 80.515625 117.292969 86.59375 113.707031 C 90.996094 111.105469 94.644531 108.957031 97.789062 107.46875 C 109.328125 102.011719 114.148438 105.367188 124.792969 127.84375 C 133.53125 146.289062 142.332031 154.289062 152.371094 155.691406 C 162.417969 157.09375 173.734375 151.910156 187.460938 143.984375 C 205.941406 133.316406 210.714844 137.320312 218.6875 144.003906 C 222.609375 147.289062 227.3125 151.234375 234.839844 154.371094 L 234.722656 154.660156 C 227.148438 151.5 222.425781 147.542969 218.492188 144.238281 C 210.621094 137.644531 205.910156 133.691406 187.617188 144.253906 C 173.832031 152.210938 162.464844 157.414062 152.328125 155.996094 C 142.183594 154.578125 133.300781 146.53125 124.515625 127.976562 C 113.980469 105.730469 109.226562 102.394531 97.921875 107.75 C 94.789062 109.234375 91.148438 111.378906 86.746094 113.972656 C 80.667969 117.558594 73.140625 122 63.472656 126.734375 C 21.261719 147.429688 0.207031 110.410156 0.144531 110.308594 Z M 0.410156 110.148438 " fill-opacity="1" fill-rule="nonzero"/><path fill="#aa55ff" d="M 0.394531 118.863281 C 0.464844 118.949219 24.117188 148.882812 63.300781 124.070312 C 65.492188 122.679688 67.480469 121.417969 69.363281 120.214844 C 78.171875 114.609375 84.738281 110.421875 89.925781 107.894531 C 104.507812 100.792969 108.25 106.648438 119.859375 130.464844 C 128.125 147.425781 136.976562 153.898438 147.15625 154.144531 C 157.351562 154.386719 168.902344 148.394531 182.527344 140.4375 C 199.808594 130.347656 206.273438 136.378906 214.894531 144.417969 C 219.929688 149.109375 225.707031 154.5 234.839844 157.722656 L 234.734375 158.015625 C 225.542969 154.773438 219.746094 149.359375 214.683594 144.644531 C 206.15625 136.691406 199.761719 130.730469 182.683594 140.703125 C 169.015625 148.683594 157.421875 154.695312 147.144531 154.449219 C 136.847656 154.199219 127.90625 147.683594 119.582031 130.59375 C 108.082031 107.003906 104.382812 101.199219 90.066406 108.171875 C 84.886719 110.691406 78.328125 114.875 69.53125 120.476562 C 67.585938 121.710938 65.539062 123.019531 63.46875 124.328125 C 24.046875 149.289062 0.226562 119.140625 0.15625 119.058594 Z M 0.394531 118.863281 " fill-opacity="1" fill-rule="nonzero"/><path fill="#d52bff" d="M 0.378906 127.570312 C 0.453125 127.636719 26.839844 150.734375 63.257812 121.675781 C 86.859375 102.839844 94.964844 100.050781 101.980469 108.839844 C 104.804688 112.378906 107.4375 117.800781 110.84375 124.816406 C 112.082031 127.367188 113.421875 130.121094 114.910156 133.082031 C 122.707031 148.566406 131.609375 153.507812 141.917969 152.59375 C 152.261719 151.679688 164.050781 144.878906 177.574219 136.894531 C 193.953125 127.21875 201.695312 135.074219 211.101562 144.613281 C 217.292969 150.898438 224.214844 157.917969 234.820312 161.082031 L 234.730469 161.375 C 224.050781 158.1875 217.101562 151.140625 210.878906 144.832031 C 201.570312 135.386719 193.902344 127.609375 177.730469 137.160156 C 164.175781 145.164062 152.355469 151.980469 141.941406 152.902344 C 131.5 153.828125 122.496094 148.84375 114.628906 133.222656 C 113.140625 130.269531 111.796875 127.507812 110.554688 124.953125 C 107.15625 117.953125 104.53125 112.546875 101.726562 109.035156 C 94.867188 100.441406 86.851562 103.238281 63.4375 121.925781 C 26.835938 151.140625 0.253906 127.875 0.179688 127.8125 Z M 0.378906 127.570312 " fill-opacity="1" fill-rule="nonzero"/><path fill="#ff00ff" d="M 0.347656 136.289062 C 0.433594 136.335938 29.566406 152.601562 63.214844 119.289062 C 80.921875 101.761719 88.859375 99.335938 94.542969 105.070312 C 97.660156 108.214844 100.0625 113.816406 103.035156 120.722656 C 104.988281 125.261719 107.179688 130.371094 109.96875 135.695312 C 120.875 156.53125 135.398438 153.925781 153.132812 144.652344 C 158.246094 141.976562 163.625 138.746094 169.261719 135.363281 C 170.375 134.695312 171.503906 134.019531 172.632812 133.339844 C 188.292969 123.984375 197.074219 133.507812 207.285156 144.585938 C 214.660156 152.589844 222.792969 161.410156 234.8125 164.425781 L 234.734375 164.726562 C 222.628906 161.6875 214.464844 152.828125 207.054688 144.792969 C 196.929688 133.8125 188.230469 124.375 172.789062 133.601562 C 171.652344 134.277344 170.53125 134.953125 169.417969 135.625 C 163.78125 139.011719 158.394531 142.246094 153.273438 144.917969 C 135.378906 154.277344 120.714844 156.898438 109.691406 135.832031 C 106.890625 130.480469 104.695312 125.375 102.75 120.839844 C 99.789062 113.960938 97.390625 108.382812 94.320312 105.28125 C 88.785156 99.695312 80.964844 102.140625 63.433594 119.5 C 29.617188 152.984375 0.289062 136.605469 0.203125 136.558594 Z M 0.347656 136.289062 " fill-opacity="1" fill-rule="nonzero"/></svg>