<svg xmlns="http://www.w3.org/2000/svg" xmlns:xlink="http://www.w3.org/1999/xlink" width="314" zoomAndPan="magnify" viewBox="0 0 235.5 167.999997" height="224" preserveAspectRatio="xMidYMid meet" version="1.0"><defs><clipPath id="c18ce8311d"><path d="M 9.460938 0.179688 L 211.53125 0.179688 L 211.53125 167.820312 L 9.460938 167.820312 Z M 9.460938 0.179688 " clip-rule="nonzero"/></clipPath></defs><g clip-path="url(#c18ce8311d)"><path fill="#e53a37" d="M 118.117188 0.574219 C 116.640625 0.914062 115.558594 1.636719 114.722656 2.835938 C 114.066406 3.785156 113.917969 4.300781 113.917969 5.617188 C 113.917969 6.539062 114.113281 7.605469 114.367188 8.097656 L 114.820312 8.964844 L 103.152344 15.917969 C 88.054688 24.921875 89.777344 24 89.140625 23.421875 C 88.421875 22.769531 87.964844 22.816406 87.113281 23.632812 C 86.519531 24.195312 85.636719 24.457031 82.28125 25.070312 C 80.019531 25.484375 77.097656 26.070312 75.78125 26.371094 C 73.289062 26.949219 72.648438 26.917969 72.648438 26.226562 C 72.648438 25.644531 71.308594 24.128906 70.363281 23.640625 C 69.34375 23.113281 67.183594 23.105469 66.1875 23.625 C 64.453125 24.53125 63.296875 26.414062 63.296875 28.339844 C 63.296875 28.742188 63.589844 29.644531 63.941406 30.34375 L 64.585938 31.613281 L 58.683594 36.691406 C 51.164062 43.15625 51.558594 42.859375 50.890625 42.445312 C 50.195312 42.011719 48.933594 42.324219 48.726562 42.984375 C 48.554688 43.515625 47.082031 43.671875 30.71875 44.898438 C 27.835938 45.113281 24.625 45.371094 23.589844 45.472656 L 21.699219 45.65625 L 21.117188 44.515625 C 19.546875 41.4375 16.015625 40.25 12.957031 41.773438 C 10.796875 42.851562 9.46875 45.007812 9.46875 47.453125 C 9.46875 49.804688 10.777344 51.867188 12.988281 53 C 14.617188 53.839844 17.515625 53.640625 18.878906 52.601562 L 19.871094 51.847656 L 20.867188 52.523438 C 22.964844 53.949219 40.535156 64.90625 48.636719 69.847656 L 53.949219 73.082031 L 53.949219 74.390625 C 53.949219 76.023438 54.808594 77.839844 56.128906 78.996094 C 56.683594 79.484375 57.023438 79.984375 56.886719 80.109375 C 56.753906 80.234375 54.101562 82.324219 50.996094 84.746094 L 45.355469 89.15625 L 44.285156 88.191406 C 41.695312 85.855469 37.988281 87.113281 37.339844 90.550781 C 36.75 93.675781 39.855469 96.210938 42.78125 94.988281 L 43.867188 94.535156 L 49.191406 99.851562 C 52.121094 102.773438 54.515625 105.359375 54.515625 105.601562 C 54.515625 106.347656 55.332031 107.242188 56.183594 107.429688 C 57.175781 107.644531 57.25 107.988281 57.523438 113.875 C 57.65625 116.710938 57.625 118.050781 57.421875 118.050781 C 57.261719 118.050781 57.046875 118.367188 56.949219 118.757812 C 56.851562 119.148438 56.644531 119.464844 56.488281 119.464844 C 56.199219 119.464844 47.34375 121.042969 45.980469 121.339844 C 45.339844 121.476562 45.167969 121.355469 44.707031 120.429688 C 43.578125 118.15625 40.867188 117.761719 39.023438 119.601562 C 38.210938 120.417969 38.085938 120.730469 38.085938 121.964844 C 38.085938 123.695312 39 124.960938 40.5625 125.394531 C 42.445312 125.914062 44.101562 125.109375 44.878906 123.296875 L 45.375 122.144531 L 51.253906 121.09375 C 55.398438 120.355469 57.28125 120.128906 57.644531 120.320312 C 57.925781 120.472656 58.359375 120.519531 58.605469 120.425781 C 58.847656 120.332031 59.050781 120.375 59.050781 120.523438 C 59.050781 120.675781 60.867188 124.476562 63.085938 128.976562 C 65.304688 133.476562 67.160156 137.234375 67.207031 137.332031 C 67.25 137.429688 66.648438 137.566406 65.871094 137.644531 C 60.832031 138.128906 59.609375 145.234375 64.167969 147.558594 C 66.929688 148.964844 70.542969 147.460938 71.519531 144.5 C 71.695312 143.964844 71.886719 143.527344 71.945312 143.527344 C 72 143.527344 75.53125 144.972656 79.785156 146.742188 C 93.355469 152.390625 101.835938 155.886719 106.785156 157.886719 L 111.601562 159.832031 L 111.777344 161.253906 C 112.285156 165.359375 115.640625 167.824219 119.605469 167.007812 C 120.980469 166.722656 121.460938 166.445312 122.6875 165.21875 C 123.894531 164.011719 124.203125 163.488281 124.503906 162.144531 L 124.863281 160.527344 L 126.730469 159.824219 C 127.761719 159.4375 132.105469 157.855469 136.390625 156.304688 C 140.675781 154.753906 147.289062 152.324219 151.085938 150.910156 C 154.878906 149.496094 158.082031 148.335938 158.199219 148.335938 C 158.316406 148.335938 158.742188 148.832031 159.140625 149.4375 C 160.585938 151.617188 163.957031 152.398438 166.269531 151.089844 C 168.886719 149.609375 169.941406 146.324219 168.621094 143.761719 L 167.9375 142.4375 L 172.351562 138.953125 C 174.777344 137.035156 177.65625 134.691406 178.75 133.742188 L 180.738281 132.015625 L 184.277344 132.273438 L 185.546875 131 C 186.714844 129.835938 186.820312 129.613281 186.820312 128.320312 C 186.820312 126.164062 185.488281 124.574219 183.117188 123.894531 C 182.816406 123.808594 181.664062 120.886719 179.636719 115.089844 C 177.964844 110.316406 176.285156 105.703125 175.902344 104.835938 C 175.074219 102.964844 175.085938 103.046875 175.679688 103.046875 C 175.9375 103.046875 176.359375 102.859375 176.617188 102.628906 C 177.03125 102.25 178.144531 102.558594 187.121094 105.550781 C 192.644531 107.386719 198.023438 109.136719 199.078125 109.433594 C 200.921875 109.957031 200.992188 110.007812 200.9375 110.828125 C 200.824219 112.640625 201.015625 113.46875 201.84375 114.71875 C 204.824219 119.214844 211.738281 116.992188 211.738281 111.539062 C 211.738281 108.417969 209.535156 106.253906 205.902344 105.8125 C 205.550781 105.769531 201.703125 102.292969 196.785156 97.578125 L 188.273438 89.421875 L 188.964844 88.125 C 190.132812 85.925781 189.816406 82.949219 188.238281 81.300781 C 187.613281 80.648438 187.613281 80.644531 188.167969 80.027344 C 188.476562 79.691406 190.609375 76.609375 192.90625 73.183594 C 195.203125 69.761719 197.113281 66.921875 197.148438 66.882812 C 197.1875 66.839844 197.589844 67 198.039062 67.234375 C 200.566406 68.550781 203.789062 66.222656 203.433594 63.335938 C 203.175781 61.234375 201.644531 59.953125 199.316406 59.90625 L 198.074219 59.882812 L 196.972656 56.484375 C 194.785156 49.75 192.203125 41.449219 192.203125 41.152344 C 192.203125 40.984375 192.566406 40.773438 193.011719 40.683594 C 194.101562 40.464844 195.589844 39.171875 196.066406 38.035156 C 196.882812 36.085938 196.160156 33.484375 194.46875 32.28125 C 193.363281 31.492188 191.144531 31.214844 189.941406 31.714844 C 188.5625 32.285156 187.171875 34.039062 186.953125 35.488281 C 186.851562 36.183594 186.847656 37.015625 186.949219 37.332031 C 187.171875 38.03125 187.484375 37.988281 176.933594 38.824219 C 170.996094 39.296875 169.050781 39.367188 168.652344 39.117188 C 167.816406 38.597656 167.039062 38.738281 166.539062 39.5 C 166.101562 40.167969 165.929688 40.207031 163.574219 40.207031 C 162.199219 40.207031 161.007812 40.105469 160.929688 39.980469 C 160.851562 39.851562 162.410156 37.019531 164.394531 33.679688 C 166.378906 30.34375 168.605469 26.582031 169.347656 25.328125 C 170.566406 23.261719 170.765625 23.050781 171.460938 23.144531 C 172.445312 23.277344 173.914062 22.367188 174.640625 21.175781 C 175.746094 19.359375 175.066406 16.8125 173.203125 15.816406 C 170.542969 14.390625 167.558594 16.167969 167.554688 19.175781 L 167.554688 20.253906 L 161.570312 21.167969 C 158.277344 21.671875 155.472656 22.011719 155.339844 21.929688 C 155.203125 21.84375 155.089844 21.53125 155.089844 21.230469 C 155.089844 20.929688 154.71875 20.269531 154.261719 19.761719 C 153.503906 18.910156 153.300781 18.835938 151.71875 18.835938 C 150.15625 18.835938 149.917969 18.921875 149.074219 19.761719 C 148.265625 20.570312 148.148438 20.875 148.148438 22.167969 C 148.148438 22.984375 148.25 23.921875 148.371094 24.253906 C 148.570312 24.796875 148.246094 25.054688 145.113281 26.828125 C 143.199219 27.910156 140.976562 29.183594 140.175781 29.664062 L 138.722656 30.53125 L 132.109375 22.421875 C 128.46875 17.957031 124.675781 13.367188 123.675781 12.21875 C 122.140625 10.453125 121.929688 10.089844 122.320312 9.875 C 123.261719 9.347656 124.210938 7.253906 124.210938 5.707031 C 124.210938 4.046875 123.78125 3.046875 122.605469 1.957031 C 121.21875 0.675781 119.703125 0.207031 118.117188 0.574219 Z M 116.082031 10.246094 C 116.28125 10.558594 114.992188 14.417969 111.328125 24.476562 C 108.558594 32.066406 106.226562 38.550781 106.140625 38.886719 C 106.058594 39.226562 105.753906 39.804688 105.464844 40.175781 C 105.179688 40.546875 104.945312 41.214844 104.945312 41.660156 C 104.945312 42.625 104.714844 42.65625 103.246094 41.90625 C 101.644531 41.089844 99.359375 41.148438 97.578125 42.046875 C 96.808594 42.4375 96.132812 42.753906 96.074219 42.753906 C 95.953125 42.753906 93.710938 38.019531 91.921875 33.980469 C 91.265625 32.5 90.167969 30.101562 89.480469 28.648438 C 88.792969 27.195312 88.230469 25.953125 88.230469 25.886719 C 88.230469 25.824219 88.449219 25.773438 88.714844 25.773438 C 88.980469 25.773438 89.460938 25.464844 89.777344 25.09375 C 90.203125 24.589844 110.074219 12.542969 114.71875 9.96875 C 115.390625 9.597656 115.714844 9.664062 116.082031 10.246094 Z M 129.246094 20.21875 C 136.550781 29.070312 137.941406 30.832031 137.753906 31.019531 C 137.675781 31.09375 134.191406 33.113281 130.003906 35.507812 C 122.746094 39.65625 122.359375 39.839844 121.742188 39.433594 C 121.160156 39.054688 121.019531 39.058594 120.386719 39.472656 C 119.644531 39.960938 119.441406 40.992188 119.984375 41.535156 C 120.203125 41.753906 120.023438 42.191406 119.347656 43.082031 C 118.828125 43.765625 118.199219 44.632812 117.953125 45.011719 L 117.503906 45.695312 L 112.996094 43.628906 C 107.195312 40.96875 106.574219 40.570312 106.753906 39.621094 C 106.867188 39.023438 114.28125 18.433594 116.542969 12.425781 L 117.144531 10.828125 L 118.199219 10.96875 C 118.777344 11.042969 119.699219 10.988281 120.242188 10.839844 C 121.167969 10.589844 121.289062 10.640625 122.085938 11.570312 C 122.550781 12.121094 125.773438 16.011719 129.246094 20.21875 Z M 168.363281 21.761719 C 168.777344 22.203125 169.300781 22.628906 169.53125 22.703125 C 169.855469 22.8125 169.59375 23.449219 168.371094 25.511719 C 167.503906 26.976562 165.429688 30.484375 163.765625 33.304688 C 161.648438 36.890625 160.402344 38.699219 159.613281 39.332031 C 158.492188 40.234375 158.484375 40.234375 156.792969 39.902344 C 155.863281 39.71875 154.921875 39.425781 154.703125 39.253906 C 154.445312 39.042969 154.050781 37 153.546875 33.273438 C 153.128906 30.160156 152.722656 27.226562 152.644531 26.753906 C 152.515625 25.996094 152.613281 25.839844 153.484375 25.425781 C 154.132812 25.117188 154.628906 24.585938 154.949219 23.863281 L 155.433594 22.769531 L 159.015625 22.246094 C 160.984375 21.960938 163.492188 21.566406 164.582031 21.371094 C 167.433594 20.867188 167.535156 20.878906 168.363281 21.761719 Z M 87.15625 25.886719 C 87.417969 26.253906 88.917969 29.375 90.484375 32.820312 C 92.050781 36.269531 93.839844 40.105469 94.464844 41.34375 L 95.59375 43.589844 L 95.03125 44.519531 C 94.71875 45.027344 94.464844 45.71875 94.464844 46.054688 C 94.460938 46.621094 94.390625 46.644531 93.472656 46.363281 C 92.828125 46.164062 92.480469 45.882812 92.480469 45.558594 C 92.480469 44.894531 91.675781 44.121094 91.101562 44.230469 C 90.820312 44.285156 89.898438 43.488281 88.738281 42.191406 C 86.839844 40.070312 86.835938 40.066406 87.449219 39.597656 C 87.976562 39.195312 88.015625 39.027344 87.738281 38.421875 C 87.527344 37.960938 87.085938 37.644531 86.476562 37.511719 C 85.960938 37.402344 84.136719 36.453125 82.421875 35.398438 C 80.707031 34.347656 77.871094 32.628906 76.117188 31.582031 C 73.078125 29.765625 72.929688 29.636719 72.929688 28.738281 L 72.929688 27.792969 L 75.550781 27.203125 C 80.0625 26.191406 84.9375 25.257812 85.820312 25.238281 C 86.398438 25.230469 86.824219 25.4375 87.15625 25.886719 Z M 150.648438 25.707031 C 151.5625 25.863281 151.808594 26.359375 152.082031 28.601562 C 152.1875 29.460938 152.535156 32.042969 152.855469 34.347656 C 153.402344 38.238281 153.410156 38.605469 152.988281 39.492188 C 152.574219 40.367188 152.390625 40.46875 150.941406 40.648438 C 150.066406 40.757812 148.878906 40.863281 148.300781 40.875 C 147.132812 40.90625 146.953125 40.738281 143.332031 36.253906 C 142.242188 34.902344 140.839844 33.179688 140.21875 32.429688 C 139.285156 31.304688 139.164062 31.023438 139.511719 30.8125 C 144.863281 27.59375 149.089844 25.296875 149.425781 25.417969 C 149.65625 25.5 150.207031 25.628906 150.648438 25.707031 Z M 76.238281 32.546875 C 85.546875 38.296875 85.398438 38.191406 85.398438 39.164062 C 85.398438 39.898438 85.796875 40.457031 87.699219 42.367188 C 89.617188 44.292969 89.976562 44.792969 89.835938 45.347656 C 89.742188 45.710938 88.613281 46.902344 87.332031 47.992188 C 86.046875 49.082031 83.324219 51.4375 81.277344 53.230469 C 67.738281 65.085938 64.324219 67.953125 63.777344 67.9375 C 63.589844 67.933594 63.121094 67.746094 62.730469 67.523438 C 62.34375 67.300781 61.671875 67.113281 61.238281 67.109375 C 60.542969 67.101562 60.476562 67.015625 60.632812 66.386719 C 60.730469 65.996094 62.371094 58.386719 64.273438 49.476562 L 67.738281 33.273438 L 69.023438 32.949219 C 70.605469 32.550781 71.585938 31.929688 72.082031 31.007812 C 72.289062 30.617188 72.492188 30.300781 72.53125 30.300781 C 72.574219 30.300781 74.242188 31.3125 76.238281 32.546875 Z M 138.707031 31.695312 C 138.792969 31.9375 143.175781 37.351562 145.519531 40.109375 C 146.15625 40.867188 146.503906 41.519531 146.402344 41.785156 C 146.304688 42.042969 146.53125 42.542969 146.945312 42.984375 C 147.875 43.980469 148.289062 44.820312 148.289062 45.695312 C 148.289062 46.28125 147.710938 46.8125 144.960938 48.738281 C 138.75 53.09375 138.929688 52.988281 137.996094 52.785156 C 136.25 52.402344 119.878906 47.257812 119.0625 46.835938 C 118.523438 46.554688 118.273438 46.25 118.371094 45.988281 C 118.773438 44.9375 120.921875 42.125 121.535156 41.847656 C 121.910156 41.675781 122.289062 41.304688 122.378906 41.023438 C 122.476562 40.71875 125.351562 38.917969 129.398438 36.625 C 133.167969 34.492188 136.695312 32.449219 137.238281 32.089844 C 138.320312 31.367188 138.5625 31.304688 138.707031 31.695312 Z M 66.910156 32.976562 C 66.945312 33.007812 66.015625 37.546875 64.839844 43.0625 C 63.664062 48.574219 62.039062 56.238281 61.230469 60.089844 C 60.417969 63.9375 59.613281 67.144531 59.4375 67.214844 C 59.105469 67.34375 57.828125 64.023438 53.554688 51.910156 C 51.40625 45.820312 51.183594 44.992188 51.484375 44.328125 C 51.671875 43.921875 54.632812 41.1875 58.0625 38.253906 C 61.492188 35.324219 64.46875 32.71875 64.679688 32.46875 C 65.023438 32.050781 65.128906 32.050781 65.949219 32.46875 C 66.4375 32.71875 66.871094 32.945312 66.910156 32.976562 Z M 187.09375 39.183594 C 186.601562 39.640625 177.019531 45.773438 175.261719 46.75 L 174.046875 47.425781 L 173.175781 46.433594 C 172.695312 45.890625 171.402344 44.441406 170.300781 43.214844 C 167.515625 40.109375 167.089844 40.308594 178.179688 39.472656 C 181.453125 39.222656 184.183594 38.96875 184.246094 38.90625 C 184.3125 38.84375 185.074219 38.792969 185.9375 38.792969 C 187.28125 38.792969 187.449219 38.847656 187.09375 39.183594 Z M 186.914062 40.5625 C 186.601562 40.914062 184.703125 43.105469 182.703125 45.433594 C 180.5625 47.921875 178.65625 49.875 178.066406 50.171875 L 177.066406 50.679688 L 175.851562 49.492188 C 175.183594 48.835938 174.636719 48.230469 174.636719 48.144531 C 174.636719 48.058594 175.179688 47.703125 175.84375 47.351562 C 176.503906 47 179.339844 45.195312 182.144531 43.34375 C 184.949219 41.492188 187.300781 39.964844 187.367188 39.949219 C 187.433594 39.9375 187.230469 40.210938 186.914062 40.5625 Z M 189.375 40.492188 C 189.667969 40.648438 190.214844 40.804688 190.589844 40.835938 C 191.222656 40.886719 191.402344 41.300781 192.90625 46.140625 C 193.804688 49.027344 195.171875 53.425781 195.945312 55.917969 C 196.773438 58.574219 197.253906 60.574219 197.117188 60.761719 C 196.03125 62.199219 195.839844 62.660156 195.839844 63.84375 C 195.839844 64.558594 196.03125 65.4375 196.265625 65.796875 C 196.667969 66.410156 196.632812 66.535156 195.695312 67.835938 C 195.144531 68.597656 193.046875 71.675781 191.035156 74.671875 C 189.027344 77.667969 187.316406 80.121094 187.242188 80.121094 C 187.164062 80.121094 186.625 79.863281 186.042969 79.554688 C 184.636719 78.800781 182.085938 78.789062 180.625 79.535156 L 179.550781 80.082031 L 174.210938 74.738281 C 168.914062 69.441406 168.871094 69.386719 169.222656 68.601562 C 169.417969 68.164062 171.449219 64.464844 173.738281 60.378906 C 177.585938 53.511719 177.953125 52.953125 178.667969 52.949219 C 179.75 52.945312 180.507812 51.78125 180.066406 50.808594 C 179.804688 50.234375 179.835938 50.011719 180.238281 49.589844 C 180.507812 49.304688 182.433594 47.078125 184.515625 44.640625 C 186.597656 42.203125 188.421875 40.207031 188.570312 40.207031 C 188.71875 40.207031 189.082031 40.335938 189.375 40.492188 Z M 158.949219 41.136719 C 159.113281 41.300781 156.710938 51.167969 156.453125 51.378906 C 156.40625 51.421875 155.820312 51.523438 155.15625 51.605469 C 154.019531 51.753906 153.917969 51.707031 153.492188 50.867188 C 153.246094 50.375 152.546875 49.3125 151.941406 48.5 C 151.242188 47.5625 150.839844 46.71875 150.839844 46.1875 C 150.839844 45.535156 150.621094 45.214844 149.84375 44.734375 C 148.753906 44.058594 148.289062 43.390625 148.289062 42.484375 C 148.289062 41.722656 148.460938 41.667969 152.152344 41.203125 C 155.269531 40.808594 158.589844 40.777344 158.949219 41.136719 Z M 167.589844 41.554688 C 168.269531 42.003906 173.222656 47.621094 173.222656 47.941406 C 173.222656 48.132812 162.171875 55.3125 162.082031 55.179688 C 161.050781 53.644531 160.167969 52.800781 158.96875 52.199219 C 158.160156 51.792969 157.460938 51.429688 157.414062 51.386719 C 157.367188 51.347656 157.863281 49.292969 158.519531 46.820312 C 160.046875 41.070312 160.058594 41.058594 164.015625 41.0625 C 166.234375 41.0625 167.007812 41.167969 167.589844 41.554688 Z M 112.386719 44.183594 L 116.265625 45.929688 L 116.191406 46.988281 C 116.132812 47.859375 115.761719 48.445312 114.101562 50.273438 L 112.082031 52.5 L 109.433594 51.832031 C 107.976562 51.464844 106.699219 51.089844 106.59375 50.992188 C 106.488281 50.898438 106.582031 50.136719 106.800781 49.300781 C 107.265625 47.515625 106.976562 45.648438 106.035156 44.351562 L 105.445312 43.539062 L 106.257812 42.859375 C 107.316406 41.980469 107.667969 42.054688 112.386719 44.183594 Z M 48.652344 44.554688 C 48.734375 44.765625 49.164062 45.015625 49.605469 45.109375 C 50.375 45.269531 50.519531 45.589844 53.0625 52.863281 C 54.519531 57.035156 56.292969 61.96875 57 63.828125 L 58.289062 67.207031 L 57.617188 67.648438 C 56.085938 68.65625 55.25 69.554688 54.660156 70.828125 L 54.035156 72.175781 L 51.65625 70.726562 C 46.007812 67.292969 23.324219 53.132812 21.722656 52.042969 L 20.519531 51.222656 L 21.101562 50.085938 C 21.421875 49.460938 21.707031 48.386719 21.738281 47.703125 C 21.804688 46.203125 20.484375 46.453125 33.550781 45.445312 C 42.242188 44.777344 47.859375 44.308594 48.324219 44.210938 C 48.425781 44.1875 48.574219 44.34375 48.652344 44.554688 Z M 93.066406 47.007812 C 94.046875 47.269531 94.117188 47.367188 94.292969 48.679688 C 94.410156 49.585938 94.820312 50.570312 95.460938 51.503906 L 96.445312 52.933594 L 95.808594 53.332031 C 95.457031 53.550781 89.382812 57.191406 82.3125 61.425781 C 75.238281 65.65625 68.804688 69.554688 68.015625 70.085938 C 66.710938 70.960938 66.550781 71.007812 66.316406 70.5625 C 66.171875 70.292969 65.722656 69.710938 65.3125 69.273438 C 64.625 68.53125 64.609375 68.457031 65.078125 68.191406 C 65.570312 67.917969 70.640625 63.574219 81.433594 54.191406 C 84.3125 51.6875 87.5 48.917969 88.511719 48.042969 C 90.480469 46.335938 90.535156 46.324219 93.066406 47.007812 Z M 151.714844 49.71875 L 153.316406 52.011719 L 152.035156 52.972656 C 151.058594 53.710938 149.738281 55.460938 149.550781 56.261719 C 149.539062 56.308594 143.515625 54.523438 139.949219 53.417969 C 139.800781 53.371094 141.648438 51.972656 144.054688 50.3125 C 149.542969 46.527344 149.488281 46.53125 151.714844 49.71875 Z M 125.03125 49.714844 C 128.398438 50.742188 132.710938 52.054688 134.621094 52.632812 L 138.09375 53.683594 L 135.457031 55.425781 C 133.492188 56.726562 132.65625 57.125 132.179688 57 C 131.828125 56.910156 131.226562 57 130.847656 57.203125 C 130.234375 57.53125 129.273438 57.324219 122.15625 55.355469 C 117.753906 54.136719 113.851562 53.03125 113.480469 52.898438 C 112.816406 52.652344 112.816406 52.644531 114.070312 51.304688 C 114.761719 50.566406 115.558594 49.613281 115.835938 49.1875 C 116.121094 48.75 116.605469 48.414062 116.945312 48.414062 C 117.28125 48.410156 117.742188 48.285156 117.976562 48.132812 C 118.210938 47.984375 118.515625 47.859375 118.65625 47.855469 C 118.796875 47.851562 121.664062 48.691406 125.03125 49.714844 Z M 175.851562 50.4375 C 176.753906 51.390625 177.457031 52.257812 177.410156 52.363281 C 177.367188 52.46875 175.292969 56.144531 172.804688 60.535156 L 168.277344 68.519531 L 165.628906 65.898438 C 164.171875 64.457031 162.726562 62.925781 162.414062 62.496094 C 161.863281 61.738281 161.859375 61.671875 162.332031 60.441406 C 162.679688 59.527344 162.773438 58.722656 162.65625 57.589844 L 162.492188 56.011719 L 168.070312 52.355469 C 171.136719 50.347656 173.773438 48.703125 173.925781 48.699219 C 174.082031 48.699219 174.949219 49.480469 175.851562 50.4375 Z M 108.609375 52.40625 C 109.789062 52.734375 110.847656 53.089844 110.964844 53.199219 C 111.183594 53.40625 108.15625 56.910156 107.757812 56.910156 C 107.636719 56.910156 106.894531 55.988281 106.109375 54.863281 C 104.785156 52.960938 104.71875 52.785156 105.144531 52.316406 C 105.722656 51.679688 106.003906 51.683594 108.609375 52.40625 Z M 97.992188 53.839844 C 98.386719 54.019531 98.710938 54.246094 98.710938 54.335938 C 98.710938 54.429688 98.332031 57.113281 97.875 60.304688 C 96.933594 66.867188 96.398438 69.203125 95.644531 70.050781 C 95.359375 70.375 94.347656 71.71875 93.398438 73.042969 C 92.449219 74.367188 91.503906 75.675781 91.292969 75.953125 C 90.929688 76.4375 90.519531 76.421875 81.851562 75.589844 C 76.867188 75.109375 71.613281 74.605469 70.175781 74.46875 C 68.742188 74.332031 67.433594 74.140625 67.273438 74.039062 C 67.113281 73.941406 66.980469 73.367188 66.980469 72.765625 L 66.980469 71.671875 L 71.160156 69.101562 C 78.910156 64.335938 96.867188 53.539062 97.070312 53.523438 C 97.179688 53.519531 97.59375 53.660156 97.992188 53.839844 Z M 105.382812 55.382812 C 106.117188 56.414062 106.734375 57.40625 106.753906 57.59375 C 106.796875 58.050781 98.722656 66.53125 98.242188 66.53125 C 97.757812 66.53125 97.722656 66.988281 98.710938 60.164062 C 99.179688 56.9375 99.5625 54.273438 99.5625 54.246094 C 99.5625 54.222656 100.210938 54.171875 101.003906 54.136719 C 101.800781 54.105469 102.660156 53.953125 102.917969 53.800781 C 103.757812 53.3125 104.027344 53.488281 105.382812 55.382812 Z M 121.375 55.964844 C 126.285156 57.320312 130.335938 58.449219 130.378906 58.480469 C 130.425781 58.507812 129.203125 60.488281 127.664062 62.886719 C 126.125 65.28125 124.148438 68.445312 123.269531 69.917969 L 121.671875 72.597656 L 120.023438 72.621094 L 118.375 72.640625 L 114.421875 66.839844 C 112.246094 63.652344 109.914062 60.300781 109.234375 59.390625 L 108.003906 57.742188 L 109.945312 55.652344 C 111.011719 54.5 112.011719 53.546875 112.167969 53.53125 C 112.324219 53.515625 116.46875 54.609375 121.375 55.964844 Z M 144.222656 55.558594 L 149.363281 57.050781 L 149.476562 58.785156 C 149.558594 60.0625 149.789062 60.824219 150.339844 61.660156 L 151.09375 62.796875 L 149.480469 64.292969 C 148.59375 65.117188 145.890625 67.65625 143.476562 69.9375 C 140.890625 72.375 138.757812 74.164062 138.292969 74.277344 C 137.289062 74.527344 136.703125 75.679688 137.1875 76.457031 C 137.726562 77.320312 137.585938 77.800781 136.746094 77.957031 C 136.316406 78.039062 133.59375 78.191406 130.691406 78.292969 L 125.417969 78.480469 L 125.214844 77.402344 C 124.996094 76.230469 124.039062 74.179688 123.707031 74.167969 C 123.59375 74.160156 123.210938 73.914062 122.859375 73.621094 L 122.214844 73.085938 L 123.96875 70.164062 C 126.308594 66.269531 130.125 60.277344 130.625 59.710938 C 130.855469 59.445312 131.296875 59.308594 131.671875 59.378906 C 132.339844 59.507812 132.855469 59.089844 133.03125 58.285156 C 133.128906 57.851562 138.175781 54.195312 138.800781 54.105469 C 138.957031 54.085938 141.394531 54.738281 144.222656 55.558594 Z M 113.019531 66.324219 C 115.433594 69.871094 117.410156 72.835938 117.410156 72.917969 C 117.410156 72.996094 116.957031 73.457031 116.402344 73.941406 C 115.230469 74.972656 114.578125 76.117188 114.578125 77.140625 C 114.578125 77.542969 114.398438 77.941406 114.183594 78.023438 C 113.964844 78.109375 111.128906 77.976562 107.878906 77.734375 C 104.628906 77.488281 99.867188 77.148438 97.296875 76.972656 C 94.722656 76.800781 92.511719 76.558594 92.382812 76.4375 C 92.25 76.316406 93.003906 75.023438 94.0625 73.566406 C 95.117188 72.113281 96.246094 70.511719 96.566406 70.011719 C 96.976562 69.378906 97.378906 69.101562 97.898438 69.09375 C 98.816406 69.078125 99.335938 68.496094 99.222656 67.601562 C 99.15625 67.058594 99.976562 66.042969 103.246094 62.632812 L 107.351562 58.34375 L 107.992188 59.113281 C 108.339844 59.535156 110.605469 62.78125 113.019531 66.324219 Z M 165.285156 73.910156 C 163.859375 76.46875 162.597656 78.664062 162.480469 78.785156 C 162.097656 79.179688 158.273438 77.578125 157.773438 76.8125 C 157.4375 76.300781 157.140625 76.148438 156.695312 76.261719 L 156.082031 76.417969 L 156.261719 72.394531 C 156.363281 70.183594 156.457031 67.578125 156.476562 66.605469 C 156.5 65.121094 156.585938 64.832031 157.003906 64.832031 C 157.71875 64.828125 160.261719 63.59375 160.734375 63.019531 C 161.105469 62.574219 161.421875 62.816406 164.507812 65.894531 L 167.875 69.261719 Z M 152.992188 64.125 C 153.726562 64.515625 154.640625 64.835938 155.027344 64.835938 L 155.730469 64.835938 L 155.523438 70.992188 C 155.410156 74.378906 155.296875 77.171875 155.273438 77.199219 C 155.171875 77.308594 143.191406 77.855469 140.867188 77.855469 C 139.496094 77.855469 138.375 77.742188 138.375 77.605469 C 138.375 77.46875 138.707031 77.136719 139.113281 76.871094 C 139.710938 76.480469 139.820312 76.234375 139.691406 75.578125 C 139.539062 74.824219 139.945312 74.375 145.539062 69.097656 C 148.84375 65.976562 151.574219 63.425781 151.605469 63.421875 C 151.636719 63.421875 152.261719 63.738281 152.992188 64.125 Z M 174.210938 75.882812 L 178.835938 80.558594 L 178.011719 81.664062 C 177.558594 82.269531 177.1875 83 177.1875 83.285156 C 177.1875 83.566406 177.085938 83.800781 176.957031 83.800781 C 176.71875 83.800781 163.515625 79.292969 163.390625 79.167969 C 163.316406 79.09375 167.296875 71.695312 168.046875 70.515625 L 168.488281 69.824219 L 169.039062 70.515625 C 169.339844 70.894531 171.667969 73.308594 174.210938 75.882812 Z M 78.878906 76 C 91.429688 77.136719 90.214844 76.953125 90.214844 77.714844 C 90.214844 78.257812 89.109375 80.058594 84.078125 87.722656 C 84.042969 87.777344 81.042969 86.199219 77.410156 84.210938 C 73.777344 82.222656 69.722656 80.023438 68.398438 79.320312 C 67.074219 78.621094 65.949219 78.011719 65.894531 77.972656 C 65.84375 77.933594 66.097656 77.238281 66.460938 76.433594 L 67.125 74.964844 L 69.105469 75.128906 C 70.195312 75.21875 74.59375 75.613281 78.878906 76 Z M 103.617188 78.140625 C 107.953125 78.453125 112.121094 78.703125 112.882812 78.703125 C 114.257812 78.703125 114.269531 78.710938 114.855469 80.027344 C 115.175781 80.757812 115.339844 81.4375 115.222656 81.542969 C 115.019531 81.71875 96.222656 92.375 94.832031 93.101562 C 94.285156 93.386719 93.621094 93.109375 89.449219 90.84375 C 86.828125 89.421875 84.660156 88.238281 84.625 88.207031 C 84.59375 88.179688 85.90625 86.125 87.542969 83.644531 C 90.230469 79.570312 90.59375 79.136719 91.277344 79.191406 C 92.164062 79.261719 93.046875 78.5625 93.046875 77.785156 C 93.046875 77.296875 93.191406 77.253906 94.390625 77.40625 C 95.132812 77.503906 99.285156 77.832031 103.617188 78.140625 Z M 155.089844 81.917969 C 155.089844 83.996094 155.007812 86.480469 154.90625 87.4375 C 154.730469 89.121094 154.699219 89.175781 153.914062 89.175781 C 153.464844 89.175781 152.503906 89.457031 151.777344 89.800781 L 150.453125 90.421875 L 144.988281 84.773438 C 141.984375 81.667969 139.523438 79.035156 139.515625 78.917969 C 139.511719 78.800781 140.304688 78.6875 141.277344 78.667969 C 142.253906 78.648438 145.027344 78.542969 147.441406 78.433594 C 149.855469 78.328125 152.566406 78.21875 153.460938 78.1875 L 155.089844 78.136719 Z M 160.261719 79.113281 C 161.15625 79.414062 161.890625 79.761719 161.890625 79.890625 C 161.890625 80.019531 161.078125 81.554688 160.085938 83.304688 C 159.09375 85.058594 157.941406 87.15625 157.53125 87.976562 C 156.980469 89.066406 156.621094 89.460938 156.175781 89.460938 C 155.597656 89.460938 155.582031 89.375 155.757812 87.296875 C 155.859375 86.105469 155.941406 83.695312 155.941406 81.945312 C 155.941406 78.941406 155.972656 78.765625 156.484375 78.898438 C 156.78125 78.976562 157.261719 78.902344 157.546875 78.734375 C 158.132812 78.390625 158.058594 78.382812 160.261719 79.113281 Z M 71.1875 81.777344 C 74.25 83.46875 78.257812 85.65625 80.09375 86.640625 C 81.929688 87.625 83.382812 88.570312 83.316406 88.738281 C 83.253906 88.90625 82.09375 90.730469 80.746094 92.789062 L 78.289062 96.539062 L 77.464844 96.113281 C 77.011719 95.878906 75.902344 95.683594 75 95.679688 L 73.355469 95.675781 L 71.972656 93.347656 C 71.214844 92.066406 69.3125 88.789062 67.753906 86.0625 C 66.191406 83.339844 64.664062 80.753906 64.363281 80.324219 C 63.921875 79.691406 63.882812 79.453125 64.15625 79.121094 C 64.347656 78.890625 64.753906 78.703125 65.058594 78.703125 C 65.363281 78.703125 68.121094 80.085938 71.1875 81.777344 Z M 136.957031 78.953125 C 136.957031 79.085938 136.722656 79.757812 136.433594 80.4375 C 136.144531 81.117188 135.175781 83.554688 134.277344 85.851562 C 133.378906 88.148438 132.574219 90.027344 132.488281 90.027344 C 132.398438 90.027344 129.996094 88.464844 127.144531 86.558594 C 122.851562 83.691406 122.042969 83.042969 122.445312 82.808594 C 123.339844 82.289062 124.773438 80.65625 124.949219 79.957031 C 125.101562 79.347656 125.285156 79.265625 126.578125 79.234375 C 128.707031 79.179688 136.496094 78.8125 136.746094 78.753906 C 136.863281 78.726562 136.957031 78.816406 136.957031 78.953125 Z M 144.042969 84.933594 L 149.847656 90.882812 L 149.085938 92.042969 C 148.667969 92.679688 148.265625 93.261719 148.191406 93.332031 C 148.121094 93.40625 145.230469 92.980469 141.769531 92.386719 C 135.957031 91.390625 135.460938 91.261719 135.230469 90.664062 C 135.078125 90.257812 134.664062 89.949219 134.125 89.84375 C 133.542969 89.726562 133.347656 89.570312 133.519531 89.355469 C 133.65625 89.179688 134.636719 86.777344 135.691406 84.011719 C 136.75 81.25 137.753906 78.988281 137.925781 78.988281 C 138.09375 78.988281 140.847656 81.664062 144.042969 84.933594 Z M 64.085938 81.464844 C 64.550781 82.203125 66.359375 85.292969 68.109375 88.328125 C 69.855469 91.363281 71.59375 94.328125 71.972656 94.910156 L 72.65625 95.972656 L 71.40625 97.175781 C 70.238281 98.300781 69.539062 99.78125 69.53125 101.136719 C 69.53125 101.410156 69.460938 101.632812 69.375 101.632812 C 69.289062 101.632812 66.898438 100.664062 64.0625 99.480469 C 61.226562 98.296875 58.734375 97.261719 58.519531 97.175781 C 58.234375 97.058594 58.179688 96.683594 58.316406 95.714844 C 58.414062 95 58.753906 91.363281 59.070312 87.628906 C 59.386719 83.898438 59.683594 80.808594 59.730469 80.757812 C 59.839844 80.652344 62.125 80.195312 62.773438 80.152344 C 63.039062 80.132812 63.597656 80.691406 64.085938 81.464844 Z M 170.105469 82.335938 L 176.761719 84.53125 L 176.933594 86.53125 L 168.835938 89.871094 C 164.378906 91.710938 160.703125 93.164062 160.664062 93.105469 C 160.625 93.046875 160.277344 92.523438 159.894531 91.945312 C 159.511719 91.363281 158.785156 90.667969 158.277344 90.394531 C 157.769531 90.121094 157.355469 89.863281 157.355469 89.820312 C 157.355469 89.734375 160.960938 83.269531 162.09375 81.324219 C 162.476562 80.660156 162.941406 80.125 163.121094 80.128906 C 163.300781 80.136719 166.445312 81.128906 170.105469 82.335938 Z M 58.765625 81.613281 C 58.765625 82.808594 58.09375 91.671875 57.75 95.015625 L 57.574219 96.75 L 51.582031 94.167969 C 43.929688 90.867188 44.050781 91.183594 48.976562 87.363281 C 50.933594 85.847656 53.699219 83.660156 55.125 82.503906 C 58.199219 80.011719 58.765625 79.875 58.765625 81.613281 Z M 116.765625 82.53125 C 117.335938 82.929688 117.355469 83.039062 117.019531 84.019531 C 116.816406 84.597656 116.296875 86.429688 115.863281 88.089844 C 115.128906 90.894531 115.019531 91.113281 114.292969 91.257812 C 113.816406 91.355469 113.300781 91.773438 112.953125 92.347656 C 112.523438 93.058594 111.378906 93.835938 108.171875 95.585938 C 105.851562 96.855469 103.664062 97.980469 103.308594 98.085938 C 102.660156 98.277344 101.792969 97.867188 96.921875 95.058594 L 94.992188 93.945312 L 100.183594 91.019531 C 103.035156 89.410156 107.726562 86.75 110.609375 85.105469 C 113.492188 83.464844 115.917969 82.117188 116 82.109375 C 116.082031 82.105469 116.429688 82.296875 116.765625 82.53125 Z M 126.832031 87.144531 C 129.882812 89.183594 132.140625 90.878906 132.140625 91.128906 C 132.140625 91.597656 127.757812 104.609375 127.363281 105.308594 C 127.144531 105.703125 119.671875 110.027344 115.425781 112.222656 L 113.585938 113.175781 L 112.34375 112.074219 C 111.664062 111.46875 110.929688 110.972656 110.714844 110.972656 C 110.503906 110.972656 110.328125 110.824219 110.328125 110.640625 C 110.328125 109.886719 114.660156 94.933594 115.027344 94.414062 C 115.25 94.101562 115.625 93.578125 115.863281 93.246094 C 116.210938 92.765625 116.230469 92.5 115.972656 91.929688 C 115.699219 91.335938 115.8125 90.644531 116.671875 87.710938 C 117.234375 85.785156 117.695312 84.003906 117.695312 83.753906 C 117.695312 83.367188 117.976562 83.320312 119.605469 83.449219 C 121.496094 83.59375 121.574219 83.632812 126.832031 87.144531 Z M 178.828125 90.097656 C 179.234375 90.527344 179.988281 91.03125 180.503906 91.21875 C 181.023438 91.40625 181.414062 91.628906 181.371094 91.714844 C 181.328125 91.800781 180.167969 93.746094 178.789062 96.042969 C 176.839844 99.285156 176.152344 100.21875 175.691406 100.21875 C 175.367188 100.21875 174.835938 100.457031 174.515625 100.753906 C 173.9375 101.28125 173.835938 101.261719 167.554688 99.589844 L 161.179688 97.890625 L 161.160156 95.867188 L 161.136719 93.84375 L 164.558594 92.476562 C 166.441406 91.726562 170.019531 90.257812 172.511719 89.214844 L 177.042969 87.320312 L 177.570312 88.320312 C 177.859375 88.871094 178.425781 89.671875 178.828125 90.097656 Z M 89.222656 91.664062 C 93.53125 93.96875 93.609375 94.019531 93.183594 94.171875 C 93.023438 94.230469 90.222656 95.796875 86.957031 97.652344 L 81.023438 101.03125 L 80.699219 99.761719 C 80.523438 99.0625 80.03125 98.132812 79.609375 97.691406 L 78.839844 96.886719 L 81.4375 92.894531 C 83.867188 89.15625 84.070312 88.921875 84.644531 89.222656 C 84.980469 89.402344 87.039062 90.5 89.222656 91.664062 Z M 201.269531 102.996094 C 203.566406 105.265625 204.402344 106.261719 204.101562 106.367188 C 203.867188 106.449219 203.078125 107.128906 202.351562 107.878906 L 201.023438 109.234375 L 189.207031 105.363281 C 182.597656 103.195312 177.273438 101.300781 177.128906 101.066406 C 176.9375 100.753906 177.578125 99.449219 179.507812 96.195312 L 182.144531 91.75 L 183.601562 91.738281 C 184.761719 91.726562 185.332031 91.539062 186.417969 90.804688 L 187.777344 89.886719 L 192.894531 94.832031 C 195.707031 97.550781 199.476562 101.226562 201.269531 102.996094 Z M 143.890625 93.496094 L 147.847656 94.148438 L 147.855469 96.078125 L 147.867188 98.007812 L 144.890625 99.148438 C 143.253906 99.777344 139.289062 101.269531 136.082031 102.46875 L 130.246094 104.648438 L 129.523438 104.0625 L 128.800781 103.472656 L 132.566406 92.292969 L 133.464844 92.460938 C 133.957031 92.554688 134.578125 92.507812 134.839844 92.363281 C 135.320312 92.09375 135.546875 92.121094 143.890625 93.496094 Z M 57.421875 97.632812 C 57.609375 97.816406 57.359375 100.652344 56.898438 103.558594 C 56.761719 104.429688 56.683594 104.488281 55.789062 104.410156 C 54.964844 104.335938 54.082031 103.582031 49.691406 99.234375 L 44.554688 94.152344 L 45.414062 92.347656 L 51.3125 94.886719 C 54.554688 96.28125 57.304688 97.519531 57.421875 97.632812 Z M 114.226562 94.058594 C 114.15625 94.253906 113.105469 97.980469 111.886719 102.339844 C 110.667969 106.699219 109.59375 110.351562 109.503906 110.453125 C 109.410156 110.554688 108.636719 110.683594 107.78125 110.734375 L 106.230469 110.832031 L 105.214844 105.816406 L 104.199219 100.804688 L 104.78125 100.226562 C 105.269531 99.734375 105.304688 99.558594 105.011719 99.085938 C 104.59375 98.417969 104.574219 98.234375 104.921875 98.234375 C 105.066406 98.234375 106.949219 97.222656 109.101562 95.984375 C 112.773438 93.875 114.53125 93.214844 114.226562 94.058594 Z M 98.53125 96.945312 C 100.929688 98.296875 102.394531 99.292969 102.394531 99.570312 C 102.394531 99.8125 102.597656 100.160156 102.84375 100.339844 C 103.140625 100.558594 103.660156 102.472656 104.386719 106.03125 L 105.484375 111.398438 L 104.628906 112.28125 C 104.15625 112.769531 103.601562 113.65625 103.394531 114.257812 L 103.019531 115.347656 L 96.96875 116.828125 C 90.757812 118.347656 89.644531 118.53125 89.644531 118.058594 C 89.644531 117.511719 88.476562 117.125 87.78125 117.445312 C 87.039062 117.78125 86.773438 117.425781 81.621094 109.292969 L 79.214844 105.492188 L 79.894531 104.601562 C 80.269531 104.109375 80.652344 103.324219 80.746094 102.855469 C 80.898438 102.085938 81.5625 101.628906 87.335938 98.308594 C 90.867188 96.273438 93.960938 94.644531 94.210938 94.6875 C 94.460938 94.730469 96.40625 95.746094 98.53125 96.945312 Z M 62.378906 99.601562 C 64.519531 100.507812 66.996094 101.535156 67.882812 101.890625 C 69.222656 102.425781 69.558594 102.703125 69.90625 103.566406 C 70.421875 104.851562 71.425781 105.957031 72.664062 106.59375 C 73.855469 107.210938 76.253906 107.210938 77.441406 106.597656 C 77.929688 106.34375 78.445312 106.210938 78.585938 106.296875 C 78.726562 106.382812 80.078125 108.394531 81.585938 110.765625 C 83.097656 113.136719 84.839844 115.816406 85.460938 116.722656 C 86.082031 117.628906 86.527344 118.433594 86.445312 118.511719 C 86.367188 118.589844 84.347656 118.882812 81.953125 119.164062 L 77.605469 119.675781 L 76.542969 118.71875 C 75.175781 117.492188 74.140625 117.46875 72.816406 118.632812 L 71.832031 119.496094 L 66.078125 114.640625 C 62.914062 111.972656 59.625 109.1875 58.773438 108.449219 L 57.226562 107.113281 L 57.578125 103.59375 C 57.957031 99.765625 58.214844 97.953125 58.378906 97.953125 C 58.433594 97.953125 60.234375 98.695312 62.378906 99.601562 Z M 148.695312 99.304688 C 148.78125 99.578125 149.253906 100.242188 149.738281 100.773438 C 150.597656 101.710938 150.609375 101.753906 150.085938 102.183594 C 140.925781 109.6875 134.769531 114.757812 133.453125 115.878906 C 132.078125 117.054688 131.714844 117.242188 131.328125 116.96875 C 131.074219 116.789062 130.390625 116.351562 129.808594 116 C 128.59375 115.269531 128.609375 115.390625 129.007812 109.882812 C 129.214844 107.007812 129.3125 106.597656 129.9375 105.972656 C 130.398438 105.511719 133.515625 104.179688 139.109375 102.058594 C 143.769531 100.289062 147.796875 98.835938 148.058594 98.824219 C 148.320312 98.8125 148.609375 99.027344 148.695312 99.304688 Z M 166.78125 100.230469 C 169.777344 101.015625 172.707031 101.785156 173.292969 101.941406 C 173.878906 102.09375 174.355469 102.367188 174.355469 102.550781 C 174.355469 102.730469 174.800781 104.03125 175.34375 105.441406 C 175.890625 106.847656 177.589844 111.597656 179.125 115.996094 L 181.914062 123.988281 L 180.90625 124.488281 C 179.636719 125.113281 178.886719 126.394531 178.785156 128.109375 L 178.710938 129.441406 L 175.46875 129.40625 C 167.976562 129.328125 161.554688 129 161.464844 128.695312 C 161.3125 128.183594 158.324219 114.96875 156.953125 108.730469 C 156.253906 105.554688 155.738281 102.863281 155.804688 102.753906 C 155.875 102.644531 156.28125 102.484375 156.714844 102.398438 C 157.859375 102.167969 159.78125 100.679688 160.226562 99.671875 C 160.4375 99.195312 160.773438 98.800781 160.972656 98.800781 C 161.171875 98.800781 163.785156 99.445312 166.78125 100.230469 Z M 152.570312 102.523438 C 153.097656 102.703125 153.570312 102.878906 153.613281 102.914062 C 153.6875 102.96875 145.839844 126.179688 145.316406 127.460938 C 145.207031 127.734375 145.007812 127.957031 144.882812 127.957031 C 144.632812 127.957031 137.101562 124.621094 134.265625 123.257812 L 132.566406 122.4375 L 132.65625 121.226562 C 132.707031 120.5625 132.59375 119.554688 132.40625 118.988281 C 132.089844 118.027344 132.117188 117.921875 132.753906 117.457031 C 133.503906 116.910156 147.941406 105.046875 149.992188 103.292969 C 151.441406 102.050781 151.296875 102.09375 152.570312 102.523438 Z M 155.332031 105.3125 C 155.648438 106.636719 156.742188 111.476562 157.761719 116.070312 C 158.78125 120.660156 159.863281 125.4375 160.164062 126.683594 C 160.464844 127.925781 160.664062 128.992188 160.605469 129.050781 C 160.546875 129.109375 157.519531 129.066406 153.878906 128.953125 C 148.367188 128.78125 147.160156 128.667969 146.636719 128.277344 L 146.011719 127.804688 L 150.132812 115.636719 C 155.003906 101.253906 154.511719 102.65625 154.648438 102.796875 C 154.707031 102.855469 155.015625 103.988281 155.332031 105.3125 Z M 128.257812 108.011719 C 128.226562 108.941406 128.121094 110.929688 128.023438 112.433594 L 127.84375 115.164062 L 126.816406 115.359375 C 124.976562 115.703125 123.453125 116.867188 122.339844 118.78125 C 122.035156 119.300781 121.953125 119.296875 118.941406 118.679688 C 117.242188 118.332031 115.582031 118.046875 115.253906 118.046875 C 114.730469 118.050781 114.636719 117.84375 114.5 116.421875 C 114.414062 115.527344 114.269531 114.597656 114.171875 114.359375 C 114.039062 114.03125 115.167969 113.269531 118.890625 111.175781 C 121.582031 109.664062 124.613281 107.917969 125.625 107.300781 C 128.070312 105.804688 128.332031 105.875 128.257812 108.011719 Z M 64.878906 114.492188 C 70.390625 119.230469 71.667969 120.46875 71.972656 121.355469 C 72.402344 122.609375 73.285156 123.429688 74.203125 123.429688 C 74.800781 123.429688 76.359375 125.03125 81.652344 131.09375 L 82.539062 132.109375 L 77.542969 136.050781 C 74.792969 138.214844 72.320312 140.144531 72.050781 140.339844 C 71.628906 140.648438 71.480469 140.566406 70.984375 139.765625 C 70.667969 139.253906 69.925781 138.5625 69.332031 138.230469 C 68.34375 137.671875 67.914062 136.9375 63.941406 128.972656 C 60.449219 121.96875 59.660156 120.167969 59.789062 119.511719 C 59.917969 118.867188 59.804688 118.582031 59.238281 118.136719 C 58.570312 117.613281 58.503906 117.324219 58.21875 113.792969 C 57.890625 109.671875 57.855469 108.710938 58.035156 108.710938 C 58.101562 108.710938 61.179688 111.3125 64.878906 114.492188 Z M 103.722656 119.605469 C 103.972656 120.058594 103.753906 121.207031 102.640625 125.269531 C 101.875 128.070312 100.953125 131.636719 100.589844 133.195312 L 99.929688 136.023438 L 96.601562 130.929688 C 94.773438 128.128906 92.394531 124.496094 91.320312 122.863281 C 89.597656 120.242188 89.417969 119.851562 89.820312 119.554688 C 90.070312 119.367188 92.714844 118.632812 95.695312 117.921875 C 98.679688 117.210938 101.503906 116.527344 101.96875 116.40625 C 102.808594 116.191406 102.824219 116.207031 103.117188 117.613281 C 103.28125 118.398438 103.554688 119.296875 103.722656 119.605469 Z M 119.15625 119.492188 C 120.660156 119.789062 121.964844 120.03125 122.058594 120.03125 C 122.152344 120.03125 122.226562 120.546875 122.226562 121.179688 C 122.226562 122.605469 122.757812 123.65625 124.046875 124.789062 C 125.414062 125.984375 127.453125 126.292969 129.308594 125.578125 C 129.628906 125.453125 130.566406 126.945312 133.074219 131.550781 C 134.910156 134.925781 136.34375 137.867188 136.257812 138.085938 C 136.128906 138.425781 134.4375 138.457031 124.988281 138.285156 C 118.871094 138.175781 113.78125 138.003906 113.675781 137.902344 C 113.570312 137.804688 112.796875 134.21875 111.957031 129.9375 L 110.429688 122.15625 L 111.328125 121.675781 C 112.269531 121.171875 114.011719 119.359375 114.011719 118.886719 C 114.011719 118.570312 115.140625 118.707031 119.15625 119.492188 Z M 87.199219 119.890625 C 87.289062 120.125 87.65625 120.316406 88.019531 120.316406 C 88.542969 120.316406 89.097656 120.957031 90.769531 123.5 C 91.917969 125.25 94.304688 128.882812 96.066406 131.566406 C 97.828125 134.25 99.109375 136.449219 98.917969 136.449219 C 98.726562 136.445312 98.125 136.171875 97.578125 135.832031 C 97.035156 135.496094 94.988281 134.316406 93.03125 133.214844 C 89.722656 131.351562 89.488281 131.164062 89.648438 130.503906 C 90.121094 128.558594 88.832031 126.3125 86.871094 125.664062 C 84.722656 124.957031 82.289062 126.613281 82.007812 128.980469 L 81.855469 130.273438 L 79.164062 127.222656 C 77.683594 125.542969 76.246094 123.957031 75.964844 123.695312 C 75.480469 123.246094 75.492188 123.203125 76.171875 122.757812 C 76.5625 122.503906 76.988281 121.878906 77.117188 121.375 L 77.355469 120.457031 L 81.164062 119.996094 C 86.234375 119.382812 87 119.371094 87.199219 119.890625 Z M 106.714844 121.859375 C 107.289062 122.101562 108.199219 122.296875 108.734375 122.296875 C 109.664062 122.296875 109.722656 122.355469 109.910156 123.5 C 110.019531 124.160156 110.667969 127.546875 111.351562 131.023438 C 112.035156 134.5 112.59375 137.511719 112.59375 137.71875 C 112.59375 138.015625 111.558594 138.058594 107.28125 137.933594 C 101.546875 137.765625 100.722656 137.550781 100.703125 136.21875 C 100.695312 135.535156 101.738281 131.210938 103.417969 124.984375 C 104.742188 120.0625 104.578125 120.4375 105.171875 120.972656 C 105.449219 121.222656 106.144531 121.621094 106.714844 121.859375 Z M 134.027344 124.027344 C 135.09375 124.511719 137.816406 125.730469 140.074219 126.734375 C 142.335938 127.742188 144.296875 128.675781 144.4375 128.8125 C 144.777344 129.140625 144.269531 129.878906 140.71875 134.222656 C 139.085938 136.222656 137.636719 137.792969 137.503906 137.710938 C 137.261719 137.558594 135.847656 135.066406 132.328125 128.566406 L 130.4375 125.070312 L 131.21875 124.128906 C 131.648438 123.609375 132.019531 123.175781 132.046875 123.164062 C 132.070312 123.152344 132.960938 123.542969 134.027344 124.027344 Z M 158.671875 129.839844 L 160.980469 130.019531 L 161.320312 131.746094 C 161.507812 132.699219 162.023438 135 162.464844 136.855469 C 162.910156 138.714844 163.21875 140.324219 163.152344 140.433594 C 163.085938 140.542969 162.570312 140.714844 162.007812 140.820312 C 160.960938 141.019531 158.492188 143.152344 158.484375 143.871094 C 158.472656 144.855469 158.074219 144.9375 156.070312 144.386719 C 141.394531 140.351562 138.09375 139.363281 138.09375 138.996094 C 138.09375 138.851562 139.421875 137.085938 141.046875 135.070312 C 142.671875 133.054688 144.160156 131.152344 144.355469 130.839844 C 144.632812 130.398438 144.914062 130.308594 145.644531 130.425781 C 146.34375 130.539062 146.625 130.460938 146.757812 130.117188 C 146.910156 129.714844 147.554688 129.65625 151.648438 129.65625 C 154.242188 129.65625 157.402344 129.738281 158.671875 129.839844 Z M 179.683594 130.867188 L 180.34375 131.488281 L 179.648438 132.058594 C 176.855469 134.351562 167.910156 141.488281 167.613281 141.660156 C 167.414062 141.78125 167.042969 141.707031 166.792969 141.496094 C 166.546875 141.289062 165.828125 140.929688 165.199219 140.695312 L 164.054688 140.269531 L 162.980469 135.457031 C 162.390625 132.8125 161.902344 130.46875 161.898438 130.246094 C 161.890625 129.910156 163.183594 129.878906 170.457031 130.050781 C 178.742188 130.242188 179.042969 130.269531 179.683594 130.867188 Z M 92.824219 134.089844 C 94.894531 135.285156 97.113281 136.5625 97.757812 136.925781 C 98.585938 137.398438 98.972656 137.832031 99.089844 138.414062 C 99.183594 138.882812 99.492188 139.308594 99.808594 139.410156 C 100.144531 139.515625 101.523438 141.527344 103.269531 144.457031 C 104.863281 147.136719 107.472656 151.492188 109.066406 154.140625 C 110.660156 156.785156 111.929688 158.988281 111.890625 159.03125 C 111.820312 159.113281 92.691406 151.277344 79.445312 145.742188 C 77.96875 145.121094 75.640625 144.164062 74.277344 143.609375 C 70.933594 142.253906 70.960938 142.074219 74.960938 138.996094 C 76.679688 137.671875 79.230469 135.707031 80.625 134.628906 L 83.160156 132.664062 L 83.96875 133.140625 C 84.414062 133.402344 85.25 133.617188 85.832031 133.617188 C 86.875 133.617188 88.796875 132.683594 88.796875 132.179688 C 88.796875 132.035156 88.855469 131.921875 88.929688 131.921875 C 89.003906 131.921875 90.757812 132.898438 92.824219 134.089844 Z M 112.839844 138.871094 C 112.894531 138.921875 113.238281 140.53125 113.597656 142.449219 C 113.960938 144.363281 114.648438 147.765625 115.125 150.011719 C 115.601562 152.253906 115.992188 154.183594 115.992188 154.300781 C 115.992188 154.417969 115.453125 154.832031 114.789062 155.226562 C 114.128906 155.621094 113.332031 156.332031 113.019531 156.808594 C 112.707031 157.285156 112.371094 157.675781 112.269531 157.679688 C 112.019531 157.679688 111.105469 156.207031 105.824219 147.285156 C 103.316406 143.046875 101.261719 139.441406 101.261719 139.277344 C 101.261719 139.113281 101.511719 138.886719 101.820312 138.773438 C 102.351562 138.574219 112.621094 138.667969 112.839844 138.871094 Z M 132.921875 139.167969 C 134.6875 139.261719 136.109375 139.457031 136.109375 139.613281 C 136.109375 139.902344 131.898438 144.898438 125.976562 151.640625 L 122.453125 155.652344 L 121.164062 154.96875 C 120.265625 154.488281 119.417969 154.28125 118.363281 154.28125 C 117.03125 154.28125 116.835938 154.207031 116.707031 153.644531 C 116.441406 152.496094 113.726562 139.152344 113.726562 139 C 113.726562 138.808594 128.613281 138.941406 132.921875 139.167969 Z M 146.910156 142.503906 C 151.488281 143.800781 155.910156 145.019531 156.734375 145.214844 C 158.21875 145.566406 158.234375 145.582031 158.152344 146.554688 L 158.066406 147.539062 L 153.105469 149.371094 C 140.589844 154 125.019531 159.660156 124.804688 159.660156 C 124.671875 159.660156 124.492188 159.308594 124.40625 158.882812 C 124.324219 158.453125 123.933594 157.632812 123.542969 157.058594 C 123.152344 156.484375 122.929688 155.976562 123.046875 155.925781 C 123.285156 155.828125 128.070312 150.433594 133.222656 144.457031 C 136.839844 140.257812 137.367188 139.777344 138.128906 140.007812 C 138.378906 140.082031 142.332031 141.207031 146.910156 142.503906 Z M 146.910156 142.503906 " fill-opacity="1" fill-rule="evenodd"/></g></svg>